<?xml version="1.0" encoding="UTF-8" standalone="no"?>
<!-- Created with Inkscape (http://www.inkscape.org/) -->

<svg
   version="1.1"
   id="svg2"
   xml:space="preserve"
   width="1701.08"
   height="258.42398"
   viewBox="0 0 1701.08 258.42398"
   sodipodi:docname="Bezalel_academy_of_arts_and_design_new_logo.svg"
   inkscape:version="1.1.1 (3bf5ae0d25, 2021-09-20)"
   xmlns:inkscape="http://www.inkscape.org/namespaces/inkscape"
   xmlns:sodipodi="http://sodipodi.sourceforge.net/DTD/sodipodi-0.dtd"
   xmlns="http://www.w3.org/2000/svg"
   xmlns:svg="http://www.w3.org/2000/svg"><defs
     id="defs6"><clipPath
       clipPathUnits="userSpaceOnUse"
       id="clipPath20"><path
         d="M 0,1080 H 1920 V 0 H 0 Z"
         id="path18" /></clipPath></defs><sodipodi:namedview
     id="namedview4"
     pagecolor="#ffffff"
     bordercolor="#999999"
     borderopacity="1"
     inkscape:pageshadow="0"
     inkscape:pageopacity="0"
     inkscape:pagecheckerboard="0"
     showgrid="false"
     fit-margin-top="0"
     fit-margin-left="0"
     fit-margin-right="0"
     fit-margin-bottom="0"
     inkscape:zoom="0.65664168"
     inkscape:cx="1158.1659"
     inkscape:cy="287.06676"
     inkscape:window-width="1920"
     inkscape:window-height="1001"
     inkscape:window-x="-9"
     inkscape:window-y="-9"
     inkscape:window-maximized="1"
     inkscape:current-layer="g8" /><g
     id="g8"
     inkscape:groupmode="layer"
     inkscape:label="Bezalel_academy_of_arts_and_design_new_logo"
     transform="matrix(1.3333333,0,0,-1.3333333,-429.46012,842.71105)"><g
       id="g10"
       transform="translate(642.6387,609.9678)"><path
         d="M 0,0 H 0.359 L 5.422,-16.724 H -5.165 Z M -6.29,-20.354 H 6.496 l 1.893,-6.24 H 13.76 L 3.273,4.755 -2.453,4.604 -13.297,-26.594 h 5.065 z"
         style="fill:#000000;fill-opacity:1;fill-rule:nonzero;stroke:none"
         id="path12" /></g><path
       d="m 669.6475,582.8101 c 2.249,0 4.858,0.154 7.108,1.075 l 0.206,3.987 c -1.945,-0.51 -4.041,-0.92 -5.782,-0.92 -4.295,0 -8.028,2.608 -8.028,9.208 0,3.681 0.972,6.084 2.403,7.618 1.177,0.871 2.712,1.331 4.604,1.331 2.095,0 4.092,-0.36 6.136,-0.868 l 0.307,3.935 c -1.687,0.77 -3.783,1.077 -5.982,1.077 -7.417,0 -12.379,-5.117 -12.379,-13.556 0,-8.59 5.422,-12.887 11.407,-12.887"
       style="fill:#000000;fill-opacity:1;fill-rule:nonzero;stroke:none"
       id="path24" /><path
       d="m 696.498,589.8677 c -1.892,-2.045 -4.244,-2.916 -6.29,-2.916 -2.916,0 -4.45,1.691 -4.45,4.197 0,1.225 0.206,2.349 0.82,3.27 1.942,1.077 4.191,1.128 6.393,1.128 1.328,0 2.352,-0.051 3.527,-0.157 z m -2.966,8.949 c -2.813,0 -6.137,-0.201 -8.285,-1.379 -2.557,-1.227 -4.144,-3.783 -4.144,-7.059 0,-3.324 2.202,-7.365 7.674,-7.365 2.966,0 5.573,1.178 7.774,3.324 l 0.304,-0.1 0.36,-2.864 h 4.092 v 16.724 c 0,6.29 -3.377,9.156 -9.564,9.156 -2.966,0 -6.036,-0.564 -8.799,-1.434 l -0.306,-3.938 c 2.762,0.818 5.882,1.331 8.338,1.331 4.655,0 5.575,-1.995 5.575,-5.986 v -0.51 c -0.974,0.1 -1.895,0.1 -3.019,0.1"
       style="fill:#000000;fill-opacity:1;fill-rule:nonzero;stroke:none"
       id="path28" /><path
       d="m 723.8623,589.7144 c -2.353,-2.506 -4.602,-2.763 -5.677,-2.763 -4.193,0 -6.292,3.326 -6.292,9.002 0,3.634 0.921,6.597 2.763,8.235 1.638,0.818 3.12,1.125 4.961,1.125 1.432,0 2.863,-0.204 4.245,-0.614 z m 4.758,29.663 -4.758,-0.614 v -10.073 c -1.278,0.357 -2.456,0.51 -3.784,0.51 -6.906,0 -13.094,-4.551 -13.094,-14.064 0,-7.878 4.142,-12.172 9.667,-12.172 2.353,0 5.063,0.817 7.261,3.119 l 0.36,-0.153 0.358,-2.556 h 3.99 z"
       style="fill:#000000;fill-opacity:1;fill-rule:nonzero;stroke:none"
       id="path32" /><path
       d="m 741.8662,604.0352 c 1.329,1.127 3.12,1.484 4.552,1.484 3.631,0 5.422,-2.355 5.575,-7.211 h -12.325 c 0.306,2.761 1.224,4.499 2.198,5.727 m 5.269,-21.225 c 2.146,0 5.166,0.357 7.875,1.381 l 0.256,3.631 c -2.712,-0.818 -5.372,-1.125 -7.467,-1.125 -4.961,0 -7.928,2.403 -8.184,8.439 h 16.726 c 0.307,1.432 0.307,2.559 0.307,3.887 0,6.7 -3.94,10.23 -10.026,10.23 -7.722,0 -11.816,-5.781 -11.816,-13.503 0,-8.235 4.707,-12.94 12.329,-12.94"
       style="fill:#000000;fill-opacity:1;fill-rule:nonzero;stroke:none"
       id="path36" /><path
       d="m 767.1846,603.0137 c 2.557,1.482 4.858,1.993 6.647,1.993 3.02,0 4.501,-1.279 4.501,-4.552 v -17.081 h 4.758 v 17.949 c 0,0.667 0,1.228 -0.102,1.741 2.659,1.432 4.91,1.943 6.802,1.943 3.017,0 4.449,-1.279 4.449,-4.552 v -17.081 h 4.757 v 18.002 c 0,5.523 -2.456,7.774 -7.11,7.774 -3.681,0 -7.007,-1.482 -9.46,-2.966 l -0.36,0.154 c -1.124,2.045 -3.17,2.812 -6.136,2.812 -3.273,0 -6.189,-1.33 -8.542,-2.916 l -0.357,0.104 -0.154,2.659 -4.451,-0.564 v -25.059 h 4.758 z"
       style="fill:#000000;fill-opacity:1;fill-rule:nonzero;stroke:none"
       id="path40" /><path
       d="m 826.0059,608.5361 h -5.014 l -5.881,-20.357 h -0.41 l -6.649,20.357 h -5.266 l 9.614,-24.908 v -0.358 l -4.859,-9.719 h 5.115 l 4.755,10.281 z"
       style="fill:#000000;fill-opacity:1;fill-rule:nonzero;stroke:none"
       id="path44" /><path
       d="m 845.4922,603.1646 c 1.432,1.484 2.763,2.149 5.219,2.149 3.987,0 6.953,-2.813 6.953,-9.153 0,-3.173 -0.613,-5.626 -1.584,-7.367 -1.382,-1.432 -3.12,-2.149 -5.216,-2.149 -4.554,0 -7.214,3.12 -7.214,9.309 0,2.966 0.614,5.369 1.842,7.211 m 4.705,-20.405 c 7.521,0 12.429,5.42 12.429,13.962 0,7.671 -5.012,12.479 -11.304,12.479 -7.772,0 -12.58,-5.369 -12.58,-13.911 0,-7.724 4.908,-12.53 11.455,-12.53"
       style="fill:#000000;fill-opacity:1;fill-rule:nonzero;stroke:none"
       id="path48" /><path
       d="m 869.8896,583.374 h 4.758 v 21.429 h 7.007 l 0.254,3.733 h -7.261 v 3.734 c 0,0.971 0.1,1.839 0.306,2.559 0.715,0.561 1.74,0.868 3.171,0.868 1.585,0 3.119,-0.204 4.398,-0.41 l 0.664,3.837 c -1.636,0.357 -3.323,0.51 -4.704,0.51 -5.27,0 -8.593,-2.199 -8.593,-7.978 v -3.12 l -4.244,-0.36 -0.153,-3.373 h 4.397 z"
       style="fill:#000000;fill-opacity:1;fill-rule:nonzero;stroke:none"
       id="path52" /><path
       d="m 906.7666,609.9678 h 0.359 l 5.063,-16.724 h -10.587 z m -6.29,-20.354 h 12.786 l 1.892,-6.24 h 5.372 l -10.487,31.349 -5.726,-0.151 -10.844,-31.198 h 5.062 z"
       style="fill:#000000;fill-opacity:1;fill-rule:nonzero;stroke:none"
       id="path56" /><path
       d="m 929.0205,602.2437 c 2.148,1.741 3.887,2.252 5.933,2.252 0.868,0 1.738,-0.103 2.71,-0.307 l 0.359,4.347 c -0.921,0.358 -1.791,0.511 -2.662,0.511 -2.096,0 -4.141,-1.072 -6.187,-3.427 l -0.306,0.103 -0.104,3.274 -4.501,-0.564 v -25.059 h 4.758 z"
       style="fill:#000000;fill-opacity:1;fill-rule:nonzero;stroke:none"
       id="path60" /><path
       d="m 944.0557,588.1289 c 0,-3.527 1.484,-5.062 5.832,-5.062 1.382,0 2.967,0.254 4.501,0.714 l 0.051,3.785 c -1.483,-0.254 -2.61,-0.307 -3.478,-0.307 -0.666,0 -1.381,0.053 -2.148,0.156 v 17.388 h 5.729 l 0.307,3.733 -6.036,0.053 v 6.647 l -3.887,-0.513 -0.614,-6.084 -3.837,-0.206 -0.204,-3.577 h 3.784 z"
       style="fill:#000000;fill-opacity:1;fill-rule:nonzero;stroke:none"
       id="path64" /><path
       d="m 966.5615,586.5439 c -1.945,0 -4.451,0.563 -7.264,1.942 l -0.868,-3.784 c 2.353,-1.177 4.755,-1.841 7.621,-1.841 6.547,0 9.82,3.477 9.82,7.467 0,7.621 -12.533,8.592 -12.533,12.736 0,0.768 0.361,1.379 1.025,1.892 0.817,0.408 2.249,0.714 3.733,0.714 1.636,0 3.888,-0.356 6.341,-1.481 l 0.82,3.786 c -2.352,0.868 -4.551,1.278 -6.753,1.278 -5.522,0 -9.613,-2.609 -9.613,-6.803 0,-7.366 12.325,-7.824 12.325,-12.837 0,-0.87 -0.357,-1.637 -0.921,-2.198 -0.97,-0.614 -2.301,-0.871 -3.733,-0.871"
       style="fill:#000000;fill-opacity:1;fill-rule:nonzero;stroke:none"
       id="path68" /><path
       d="m 996.6348,598.3086 -4.501,-0.256 c -0.307,-2.969 -0.46,-5.832 -0.46,-8.082 v -6.597 h 4.961 z"
       style="fill:#000000;fill-opacity:1;fill-rule:nonzero;stroke:none"
       id="path72" /><path
       d="m 1008.1426,605.877 c 0.204,-1.434 0.204,-3.02 0.204,-4.604 v -17.899 h 5.012 v 18.513 c 0,7.263 -1.892,8.388 -12.172,8.388 -3.374,0 -7.108,-0.154 -10.28,-0.46 l 0.306,-4.042 c 3.326,0.257 7.264,0.411 10.281,0.411 2.558,0 4.807,-0.051 6.649,-0.307"
       style="fill:#000000;fill-opacity:1;fill-rule:nonzero;stroke:none"
       id="path76" /><path
       d="m 1021.5459,605.9775 v -11.659 h 4.961 v 11.455 c 0,3.734 -1.124,4.348 -5.012,4.348 -1.227,0 -2.762,0 -4.04,-0.051 l 0.41,-4.093 z"
       style="fill:#000000;fill-opacity:1;fill-rule:nonzero;stroke:none"
       id="path80" /><path
       d="m 1037.1475,583.374 1.738,20.867 c 3.221,1.429 6.341,1.737 8.696,1.737 1.225,0 2.146,-0.051 2.965,-0.205 0.255,-1.995 0.255,-3.987 0.255,-6.086 v -12.019 h -7.621 v -4.294 h 12.532 v 17.134 c 0,7.975 -1.381,9.767 -7.314,9.767 -3.684,0 -6.906,-0.768 -10.587,-2.763 l -0.972,2.916 -4.553,-0.307 1.945,-5.933 -2.149,-20.814 z"
       style="fill:#000000;fill-opacity:1;fill-rule:nonzero;stroke:none"
       id="path84" /><path
       d="m 1073.1035,605.9775 c -0.41,-3.017 -0.614,-6.033 -0.614,-10.789 v -11.867 h 5.062 v 22.505 l 3.633,0.357 v 3.835 h -21.225 l 0.307,-4.041 z"
       style="fill:#000000;fill-opacity:1;fill-rule:nonzero;stroke:none"
       id="path88" /><path
       d="m 1104.5605,605.6201 -8.285,-22.246 h 5.062 l 7.978,22.759 -0.511,3.938 h -22.862 l 0.306,-4.094 h 18.159 z"
       style="fill:#000000;fill-opacity:1;fill-rule:nonzero;stroke:none"
       id="path92" /><path
       d="m 1091.417,599.3301 -4.45,-0.103 c -0.358,-3.067 -0.512,-6.7 -0.512,-9.052 v -16.674 h 4.962 z"
       style="fill:#000000;fill-opacity:1;fill-rule:nonzero;stroke:none"
       id="path96" /><path
       d="m 1135.709,602.7065 0.664,7.364 h -4.962 l -0.357,-6.292 c -0.103,-2.813 -0.87,-5.676 -1.842,-7.364 l -0.357,-0.154 c -3.683,4.501 -7.571,9.463 -11.611,14.065 l -5.523,-0.408 c 1.996,-2.149 4.041,-4.501 6.036,-6.803 v -0.257 c -1.944,-2.506 -3.173,-5.776 -3.58,-9.87 l -0.87,-9.614 h 5.011 l 0.513,8.082 c 0.153,2.863 0.715,5.676 1.585,8.028 l 0.254,0.051 c 3.787,-4.705 8.185,-10.384 12.326,-16.161 h 5.219 v 0.562 c -2.15,3.172 -4.298,6.085 -6.497,9.001 2.149,2.303 3.634,5.83 3.991,9.77"
       style="fill:#000000;fill-opacity:1;fill-rule:nonzero;stroke:none"
       id="path100" /><path
       d="m 419.3301,518.415 c -1.482,0.05 -3.12,-0.154 -4.398,-0.665 0.103,-1.38 0.46,-2.762 0.921,-4.347 l 3.887,0.564 z"
       style="fill:#000000;fill-opacity:1;fill-rule:nonzero;stroke:none"
       id="path104" /><path
       d="m 411.4023,518.415 c -1.482,0.05 -3.12,-0.154 -4.398,-0.665 0.103,-1.38 0.46,-2.762 0.92,-4.347 l 3.888,0.564 z"
       style="fill:#000000;fill-opacity:1;fill-rule:nonzero;stroke:none"
       id="path108" /><path
       d="m 505.4141,544.8052 -0.41,4.451 c -1.482,0.05 -3.119,-0.154 -4.398,-0.664 0.104,-1.384 0.46,-2.763 0.921,-4.348 z"
       style="fill:#000000;fill-opacity:1;fill-rule:nonzero;stroke:none"
       id="path112" /><path
       d="m 513.1387,544.8052 -0.41,4.451 c -1.485,0.05 -3.12,-0.154 -4.399,-0.664 0.102,-1.384 0.461,-2.763 0.921,-4.348 z"
       style="fill:#000000;fill-opacity:1;fill-rule:nonzero;stroke:none"
       id="path116" /><path
       d="m 476.5137,526.3428 c -1.995,0 -4.602,0.103 -7.415,0.768 l -0.103,0.357 c 5.576,7.313 9.616,10.843 12.787,10.843 4.601,0 7.517,-4.861 7.466,-9.105 -3.376,-1.995 -8.797,-2.863 -12.735,-2.863 m -37.594,0.204 c -2.506,0 -5.319,0.714 -7.314,2.556 1.995,6.139 3.837,8.849 6.7,8.849 2.866,0 4.554,-2.506 6.6,-8.95 -1.585,-1.688 -3.837,-2.455 -5.986,-2.455 m -47.72,-0.408 c -2.763,0 -5.883,0.614 -8.236,1.175 1.432,5.986 3.427,10.127 6.904,10.127 3.376,0 4.501,-3.477 6.803,-10.024 -1.791,-1.024 -3.63,-1.278 -5.471,-1.278 m 132.269,-1.535 c 1.588,1.228 2.609,2.964 2.66,6.19 l 0.36,29.15 -5.012,-0.511 0.254,-30.944 c -1.738,-1.175 -3.17,-1.535 -5.369,-1.535 h -0.001 -10e-4 c -2.814,0 -5.473,0.564 -7.415,1.638 l 0.357,11.918 -4.552,-0.307 -0.46,-11.661 c -1.995,-1.074 -4.041,-1.588 -7.263,-1.588 -0.01,0 -0.018,-0.003 -0.029,-0.003 -0.009,0 -0.017,0.003 -0.027,0.003 -1.225,0 -2.606,0.157 -4.244,0.463 0.41,0.715 0.613,1.635 0.613,2.71 0,5.372 -3.937,12.94 -10.637,12.94 -5.115,0 -10.894,-5.42 -17.39,-14.782 l -2.71,1.382 1.328,7.467 -4.294,-0.153 -0.922,-5.933 c -0.563,-3.324 -2.302,-3.988 -5.882,-4.094 -0.007,0 -0.014,-0.003 -0.022,-0.003 -0.011,0 -0.02,0.003 -0.03,0.003 -2.404,0 -3.427,1.588 -4.246,3.84 -2.249,6.493 -3.937,11.915 -9.562,11.915 -5.422,0 -7.98,-4.961 -10.998,-13.143 -1.124,-1.998 -2.608,-2.612 -4.348,-2.612 -2.812,0 -5.471,0.564 -7.417,1.638 l 0.358,11.918 -4.552,-0.307 -0.46,-11.661 c -1.992,-1.074 -4.04,-1.588 -7.261,-1.588 h -0.002 -0.001 c -2.812,0 -3.837,1.638 -4.347,3.07 -1.791,5.268 -3.837,12.172 -9.617,12.172 -5.675,0 -8.695,-6.29 -10.791,-14.115 -0.613,0.154 -1.074,0.204 -1.38,0.204 -1.329,-0.153 -2.557,-1.738 -2.557,-3.12 0,-1.481 0.051,-3.016 0.101,-5.114 l 0.563,-12.887 h 4.705 l -1.381,16.416 0.256,0.204 c 2.967,-1.175 6.957,-2.096 10.741,-2.096 3.684,0 6.086,0.921 7.825,2.507 h 0.307 c 1.178,-1.279 2.863,-1.946 5.575,-1.946 0.001,0 0.001,0.001 0.001,0.001 10e-4,0 10e-4,-0.001 0.002,-0.001 3.427,0 6.854,0.821 9.563,2.916 h 0.357 c 2.506,-1.995 5.779,-2.916 9.412,-2.916 2.56,0.053 4.195,0.564 6.036,2.969 h 0.411 c 2.146,-2.048 4.909,-3.479 8.539,-3.479 2.559,0 5.168,0.817 7.673,3.683 h 0.409 c 1.585,-2.403 3.58,-3.173 6.086,-3.173 0.008,0 0.016,0.003 0.026,0.003 0.01,0 0.017,-0.003 0.026,-0.003 3.376,0 6.292,0.921 8.132,3.48 h 0.41 c 4.244,-2.865 9.563,-3.837 14.371,-3.837 5.165,0 10.127,1.024 13.35,2.556 h 0.41 c 2.659,-1.685 5.165,-2.199 7.465,-2.199 0.01,0 0.018,0.003 0.027,0.003 0.011,0 0.019,-0.003 0.029,-0.003 3.426,0 6.853,0.821 9.565,2.916 h 0.358 c 2.505,-1.995 5.779,-2.916 9.41,-2.916 0,0 0,0.001 10e-4,0.001 l 0.001,-0.001 c 2.914,0 5.369,0.821 7.107,2.355"
       style="fill:#000000;fill-opacity:1;fill-rule:nonzero;stroke:none"
       id="path120" /><path
       d="m 536.1543,522.249 h 4.398 l 0.307,37.491 -4.908,-0.461 z"
       style="fill:#000000;fill-opacity:1;fill-rule:nonzero;stroke:none"
       id="path124" /><path
       d="m 558.0469,526.9038 c -4.245,0 -6.087,1.381 -6.446,2.712 0.052,3.017 2.608,7.261 5.934,7.261 3.221,0 5.473,-3.577 5.83,-9.203 -1.431,-0.463 -3.324,-0.77 -5.318,-0.77 m -3.734,-11.045 c -1.585,0 -3.734,0.204 -5.679,0.92 l -0.561,-4.093 c 1.689,-0.818 4.091,-1.431 6.494,-1.431 8.082,0 12.789,6.7 12.789,15.752 0,9.105 -4.707,14.575 -9.363,14.575 -4.959,0 -9.92,-6.34 -9.92,-11.659 0,-4.911 3.887,-7.16 8.796,-7.16 1.791,0 4.244,0.307 6.446,1.177 -0.564,-5.268 -3.327,-8.081 -9.002,-8.081"
       style="fill:#000000;fill-opacity:1;fill-rule:nonzero;stroke:none"
       id="path128" /><path
       d="m 604.2822,536.3662 1.739,-14.268 c -2.352,-3.326 -5.883,-4.554 -9.973,-4.554 -6.19,0 -9.31,2.864 -9.31,8.849 0,2.199 0.41,4.451 1.125,6.956 l -3.631,0.766 c -1.328,-3.478 -1.789,-6.494 -1.789,-8.95 0,-8.132 5.267,-12.426 12.99,-12.426 7.725,0 14.322,4.294 14.322,11.865 0,2.043 -0.411,7.261 -0.972,12.376 z"
       style="fill:#000000;fill-opacity:1;fill-rule:nonzero;stroke:none"
       id="path132" /><path
       d="m 597.8369,539.793 -0.408,4.451 c -1.485,0.05 -3.119,-0.156 -4.398,-0.664 0.101,-1.384 0.46,-2.763 0.921,-4.348 z"
       style="fill:#000000;fill-opacity:1;fill-rule:nonzero;stroke:none"
       id="path136" /><path
       d="m 646.5312,544.2441 3.887,0.561 -0.408,4.451 c -1.484,0.05 -3.12,-0.154 -4.398,-0.664 0.101,-1.384 0.461,-2.763 0.919,-4.348"
       style="fill:#000000;fill-opacity:1;fill-rule:nonzero;stroke:none"
       id="path140" /><path
       d="m 668.626,549.7139 3.888,0.563 -0.409,4.451 c -1.484,0.05 -3.122,-0.153 -4.4,-0.666 0.104,-1.379 0.461,-2.761 0.921,-4.348"
       style="fill:#000000;fill-opacity:1;fill-rule:nonzero;stroke:none"
       id="path144" /><path
       d="m 669.5977,529.2061 c -2.967,1.688 -5.112,4.194 -5.42,6.854 0.614,2.608 3.274,4.961 5.88,4.961 2.659,0 5.321,-1.535 6.189,-6.546 -1.328,-2.252 -3.376,-3.938 -6.29,-5.269 z m -42.81,-2.559 c -4.245,0 -7.211,0.72 -7.621,3.276 0.257,2.762 2.202,6.597 5.422,6.597 3.53,0 5.78,-4.501 6.036,-9.873 z m 81.277,-2.043 c 1.585,1.228 2.606,2.964 2.659,6.189 l 0.357,29.151 -5.011,-0.511 0.254,-30.944 c -1.739,-1.175 -3.17,-1.535 -5.37,-1.535 h -10e-4 -0.001 c -2.556,0 -4.959,0.614 -6.801,1.741 l 0.307,31.198 -5.011,-0.513 0.204,-30.735 c -1.842,-1.178 -3.735,-1.691 -6.701,-1.691 h -10e-4 -10e-4 -3.938 c -1.535,0 -3.069,0.156 -4.552,0.463 l -0.206,0.204 c 3.326,2.402 5.422,5.165 5.422,7.978 0,4.554 -3.683,10.18 -9.053,10.18 -5.061,0 -9.922,-5.526 -9.922,-10.333 0,-2.61 1.434,-5.423 4.041,-7.672 l -0.204,-0.206 c -2.098,-0.357 -4.398,-0.614 -7.007,-0.614 -2.814,0 -5.473,0.564 -7.417,1.638 l 0.359,11.918 -4.551,-0.307 -0.461,-11.662 c -1.995,-1.074 -4.041,-1.587 -7.263,-1.587 -0.01,0 -0.017,-0.003 -0.027,-0.003 -0.008,0 -0.016,0.003 -0.026,0.003 h -3.58 c -0.408,9.822 -5.012,14.271 -9.206,14.271 -5.063,0 -9.717,-5.83 -9.717,-11.508 0,-4.962 3.835,-7.312 10.434,-7.312 h 4.295 c -0.768,-4.347 -3.785,-6.496 -8.847,-6.496 -1.587,0 -3.786,0.307 -5.678,0.921 l -0.511,-4.091 c 1.585,-0.821 3.988,-1.434 6.393,-1.434 6.853,0 11.252,4.554 12.479,10.944 h 3.938 c 0.01,0 0.018,0.003 0.026,0.003 0.01,0 0.017,-0.003 0.027,-0.003 3.426,0 6.853,0.82 9.563,2.916 h 0.36 c 2.505,-1.995 5.779,-2.916 9.41,-2.916 4.04,0 8.031,0.921 11.455,2.305 h 0.41 c 3.837,-1.842 8.081,-2.252 13.554,-2.305 h 10e-4 c 10e-4,0 10e-4,0 10e-4,0 3.17,0 6.343,0.77 8.95,3.019 h 0.359 c 2.403,-2.048 5.573,-3.019 8.693,-3.019 0,0 0,0 0.001,0 0,0 0,0 10e-4,0 2.916,0 5.37,0.82 7.111,2.355"
       style="fill:#000000;fill-opacity:1;fill-rule:nonzero;stroke:none"
       id="path148" /><path
       d="m 744.377,554.2676 3.888,0.563 -0.41,4.449 c -1.482,0.05 -3.121,-0.154 -4.398,-0.664 0.103,-1.382 0.46,-2.763 0.92,-4.348"
       style="fill:#000000;fill-opacity:1;fill-rule:nonzero;stroke:none"
       id="path152" /><path
       d="m 736.6562,554.2676 3.887,0.563 -0.41,4.449 c -1.485,0.05 -3.12,-0.154 -4.398,-0.664 0.101,-1.382 0.46,-2.763 0.921,-4.348"
       style="fill:#000000;fill-opacity:1;fill-rule:nonzero;stroke:none"
       id="path156" /><path
       d="m 757.2168,518.415 c -1.484,0.05 -3.12,-0.154 -4.4,-0.665 0.102,-1.38 0.46,-2.762 0.921,-4.347 l 3.886,0.564 z"
       style="fill:#000000;fill-opacity:1;fill-rule:nonzero;stroke:none"
       id="path160" /><path
       d="m 765.1416,518.415 c -1.481,0.05 -3.12,-0.154 -4.397,-0.665 0.103,-1.38 0.459,-2.762 0.92,-4.347 l 3.887,0.564 z"
       style="fill:#000000;fill-opacity:1;fill-rule:nonzero;stroke:none"
       id="path164" /><path
       d="m 784.1201,537.9517 c 2.865,0 4.552,-2.506 6.597,-8.95 -1.585,-1.688 -3.834,-2.455 -5.983,-2.455 -2.507,0 -5.319,0.715 -7.314,2.556 1.995,6.139 3.837,8.849 6.7,8.849 m -47.464,-5.83 c -2.66,0 -4.758,0.461 -5.474,2.249 0.613,3.94 3.529,6.904 9.615,8.542 l 0.461,-10.28 c -1.535,-0.41 -3.223,-0.511 -4.602,-0.511 m 55.442,-6.7 h 0.41 c 1.586,-2.403 3.58,-3.173 6.087,-3.173 0.008,0 0.016,0.003 0.026,0.003 0.01,0 0.017,-0.003 0.026,-0.003 4.144,0 7.671,0.972 9.666,2.61 1.638,1.227 2.456,3.016 2.456,6.136 0,1.842 -0.256,7.624 -0.664,11.357 l -4.655,-0.462 1.228,-13.298 c -2.355,-1.225 -4.911,-1.638 -8.031,-1.638 -0.009,0 -0.016,-0.002 -0.026,-0.002 -0.01,0 -0.018,0.002 -0.026,0.002 -2.404,0 -3.427,1.588 -4.246,3.84 -2.251,6.493 -3.937,11.915 -9.565,11.915 -5.419,0 -7.978,-4.961 -10.995,-13.143 -1.124,-1.998 -2.609,-2.612 -4.348,-2.612 h -10e-4 -10e-4 c -2.813,0 -5.472,0.564 -7.418,1.638 l 0.361,11.919 -4.552,-0.308 -0.46,-11.661 c -1.995,-1.074 -4.041,-1.588 -7.264,-1.588 -3.837,0 -4.705,1.024 -4.858,4.912 l -0.564,18.618 -4.347,-0.564 0.153,-2.863 c -10.33,-3.326 -12.786,-9.209 -12.786,-13.043 0,-3.426 2.812,-6.189 8.645,-6.189 1.378,0 3.324,0.103 5.215,0.664 l 0.358,-0.151 c 0.717,-4.347 3.069,-6.089 8.184,-6.089 3.427,0 6.854,0.821 9.564,2.916 h 0.359 c 2.506,-1.995 5.779,-2.916 9.41,-2.916 0,0 0,10e-4 10e-4,10e-4 10e-4,0 10e-4,-10e-4 10e-4,-10e-4 2.557,0.054 4.195,0.564 6.036,2.97 h 0.408 c 2.148,-2.049 4.912,-3.48 8.542,-3.48 2.558,0 5.165,0.817 7.671,3.683"
       style="fill:#000000;fill-opacity:1;fill-rule:nonzero;stroke:none"
       id="path168" /><path
       d="m 807.3926,517.7505 c 0.104,-1.381 0.461,-2.762 0.921,-4.348 l 3.888,0.564 -0.411,4.449 c -1.482,0.05 -3.12,-0.154 -4.398,-0.665"
       style="fill:#000000;fill-opacity:1;fill-rule:nonzero;stroke:none"
       id="path172" /><path
       d="m 800.3857,513.4028 3.888,0.564 -0.41,4.448 c -1.483,0.05 -3.121,-0.154 -4.399,-0.664 0.104,-1.381 0.461,-2.763 0.921,-4.348"
       style="fill:#000000;fill-opacity:1;fill-rule:nonzero;stroke:none"
       id="path176" /><path
       d="m 824.5791,521.7383 c 7.058,0 12.43,3.53 12.43,8.695 0,5.216 -3.427,13.146 -10.742,18.566 l -3.12,-3.834 c 5.78,-4.504 9.564,-10.281 9.974,-15.756 -2.199,-2.455 -5.473,-2.913 -8.185,-2.913 -2.71,0 -4.961,0.563 -4.961,2.149 0,0.306 0.053,0.764 0.103,1.278 l -3.58,0.357 c -0.257,-0.971 -0.461,-2.098 -0.461,-3.019 0,-4.398 4.604,-5.523 8.542,-5.523"
       style="fill:#000000;fill-opacity:1;fill-rule:nonzero;stroke:none"
       id="path180" /><path
       d="m 869.7412,524.8081 c 1.792,1.074 2.866,2.453 2.866,4.705 0,3.733 -3.377,11.201 -10.894,17.287 v 0.408 l 12.172,8.184 -0.411,4.858 -17.08,-12.479 v -3.273 l 2.609,-1.331 c 5.726,-5.062 8.642,-9.667 9.87,-14.165 -3.58,-1.892 -7.824,-2.048 -14.628,-2.048 -0.009,0 -0.017,-0.003 -0.026,-0.003 -0.009,0 -0.017,0.003 -0.027,0.003 -3.58,0 -5.012,0.667 -5.012,3.734 v 29.052 l -4.911,-0.511 0.461,-28.999 c 0.053,-6.036 2.659,-7.981 9.462,-7.981 0.01,0 0.018,0.003 0.027,0.003 0.009,0 0.017,-0.003 0.026,-0.003 7.672,0 12.326,0.564 15.496,2.559"
       style="fill:#000000;fill-opacity:1;fill-rule:nonzero;stroke:none"
       id="path184" /><path
       d="m 884.4727,522.249 0.206,31.354 -5.064,-0.563 0.563,-30.791 z"
       style="fill:#000000;fill-opacity:1;fill-rule:nonzero;stroke:none"
       id="path188" /><path
       d="m 882.5303,564.2915 c 0.868,0 1.842,-0.154 2.71,-0.564 l 0.41,2.969 c -0.972,0.511 -1.945,0.715 -2.863,0.715 -3.02,0 -4.861,-2.353 -4.861,-4.705 0,-1.329 0.666,-2.506 1.892,-3.528 l -2.914,-0.41 v -2.456 l 10.842,1.125 v 2.863 l -2.967,-0.407 c -2.402,0.817 -4.244,1.942 -4.551,3.22 0.51,0.667 1.278,1.178 2.302,1.178"
       style="fill:#000000;fill-opacity:1;fill-rule:nonzero;stroke:none"
       id="path192" /><path
       d="m 906.6211,530.0234 c 0,1.228 0.206,2.355 0.819,3.276 1.943,1.072 4.193,1.122 6.394,1.122 1.328,0 2.352,-0.05 3.527,-0.151 v -5.525 c -1.892,-2.045 -4.244,-2.913 -6.29,-2.913 -2.916,0 -4.45,1.685 -4.45,4.191 m 10.793,-4.805 0.305,-0.104 0.359,-2.865 h 4.092 v 16.726 c 0,6.29 -3.377,9.153 -9.564,9.153 -2.966,0 -6.036,-0.561 -8.798,-1.429 l -0.307,-3.94 c 2.763,0.82 5.882,1.328 8.338,1.328 4.654,0 5.575,-1.992 5.575,-5.982 v -0.511 c -0.974,0.103 -1.895,0.103 -3.02,0.103 -2.812,0 -6.135,-0.206 -8.285,-1.384 -2.555,-1.225 -4.143,-3.784 -4.143,-7.055 0,-3.326 2.202,-7.366 7.674,-7.366 2.966,0 5.573,1.177 7.774,3.326"
       style="fill:#000000;fill-opacity:1;fill-rule:nonzero;stroke:none"
       id="path196" /><path
       d="m 945.9023,522.249 h 4.756 v 18.004 c 0,5.526 -2.506,7.775 -7.211,7.775 -3.684,0 -6.65,-1.434 -9.002,-2.916 l -0.357,0.103 -0.155,2.659 -4.45,-0.561 v -25.064 h 4.758 v 19.54 c 2.763,1.585 5.115,2.098 7.057,2.098 3.07,0 4.604,-1.281 4.604,-4.555 z"
       style="fill:#000000;fill-opacity:1;fill-rule:nonzero;stroke:none"
       id="path200" /><path
       d="m 964.0098,543.0664 c 1.639,0.82 3.12,1.127 4.962,1.127 1.432,0 2.863,-0.206 4.244,-0.614 v -14.988 c -2.352,-2.505 -4.602,-2.759 -5.676,-2.759 -4.194,0 -6.292,3.323 -6.292,8.999 0,3.631 0.92,6.6 2.762,8.235 m 1.996,-21.225 c 2.352,0 5.062,0.818 7.261,3.12 l 0.359,-0.153 0.358,-2.559 h 3.99 v 36.008 l -4.758,-0.613 v -10.077 c -1.278,0.357 -2.455,0.511 -3.784,0.511 -6.906,0 -13.093,-4.552 -13.093,-14.064 0,-7.875 4.142,-12.173 9.667,-12.173"
       style="fill:#000000;fill-opacity:1;fill-rule:nonzero;stroke:none"
       id="path204" /><path
       d="m 1001.3477,549.6133 c 1.484,0.206 2.865,0.206 4.4,0.206 6.444,0 10.434,-2.763 10.434,-11.254 0,-6.035 -1.791,-9.614 -5.575,-11.865 -1.689,-0.461 -3.173,-0.561 -4.655,-0.561 -1.485,0 -3.017,0.05 -4.604,0.203 z m 20.05,-10.537 c 0,12.072 -8.031,14.834 -15.036,14.834 -2.149,0 -5.268,0 -9.973,-0.564 v -31.044 c 3.938,-0.257 6.239,-0.36 9.053,-0.36 10.126,0 15.956,5.782 15.956,17.134"
       style="fill:#000000;fill-opacity:1;fill-rule:nonzero;stroke:none"
       id="path208" /><path
       d="m 1032.9082,542.9131 c 1.328,1.125 3.119,1.482 4.551,1.482 3.631,0 5.422,-2.35 5.576,-7.211 h -12.326 c 0.306,2.763 1.224,4.501 2.199,5.729 m 13.399,-16.213 c -2.711,-0.818 -5.371,-1.125 -7.466,-1.125 -4.962,0 -7.929,2.403 -8.185,8.439 h 16.727 c 0.306,1.432 0.306,2.556 0.306,3.887 0,6.7 -3.94,10.227 -10.026,10.227 -7.722,0 -11.816,-5.776 -11.816,-13.5 0,-8.235 4.708,-12.94 12.327,-12.94 2.148,0 5.168,0.357 7.877,1.381 z"
       style="fill:#000000;fill-opacity:1;fill-rule:nonzero;stroke:none"
       id="path212" /><path
       d="m 1069.2734,529.2061 c 0,7.621 -12.531,8.592 -12.531,12.736 0,0.767 0.359,1.381 1.023,1.892 0.819,0.41 2.249,0.717 3.735,0.717 1.634,0 3.886,-0.357 6.339,-1.485 l 0.821,3.785 c -2.353,0.87 -4.552,1.277 -6.753,1.277 -5.523,0 -9.614,-2.606 -9.614,-6.8 0,-7.364 12.326,-7.828 12.326,-12.839 0,-0.868 -0.358,-1.636 -0.921,-2.199 -0.971,-0.614 -2.302,-0.868 -3.734,-0.868 -1.945,0 -4.451,0.561 -7.263,1.945 l -0.868,-3.787 c 2.352,-1.175 4.754,-1.842 7.621,-1.842 6.546,0 9.819,3.48 9.819,7.468"
       style="fill:#000000;fill-opacity:1;fill-rule:nonzero;stroke:none"
       id="path216" /><path
       d="m 1075.7197,556.4668 c 0.05,-1.792 0.204,-3.273 0.511,-5.062 l 4.654,0.1 0.308,5.115 c -1.946,0.154 -4.041,0.053 -5.473,-0.153"
       style="fill:#000000;fill-opacity:1;fill-rule:nonzero;stroke:none"
       id="path220" /><path
       d="m 1081.3457,522.249 v 25.165 h -8.389 l -0.203,-3.58 3.885,-0.204 v -21.381 z"
       style="fill:#000000;fill-opacity:1;fill-rule:nonzero;stroke:none"
       id="path224" /><path
       d="m 1091.1631,519.5923 c 0,1.686 0.87,3.12 2.353,4.655 l 2.711,-0.463 c 5.063,-0.665 9.31,-0.921 9.31,-4.091 0,-2.66 -3.326,-4.604 -7.468,-4.604 -3.786,0 -6.906,1.383 -6.906,4.503 m 2.813,24.189 c 1.484,0.717 2.609,0.87 3.633,0.87 3.734,0 5.319,-2.148 5.319,-5.319 0,-1.992 -0.717,-3.376 -1.791,-4.347 -1.125,-0.564 -2.3,-0.715 -3.274,-0.715 -3.887,0 -5.726,2.149 -5.726,5.113 0,1.791 0.714,3.223 1.839,4.398 m 15.702,-23.117 c 0,5.319 -5.215,6.189 -12.276,7.211 -1.125,0.155 -1.992,0.257 -3.784,0.613 l 0.665,2.813 c 0.82,-0.201 1.791,-0.253 2.712,-0.253 5.729,0 10.688,2.916 10.688,8.388 0,2.198 -0.818,3.837 -2.506,5.062 v 0.36 l 5.422,-0.207 0.256,3.427 -9.308,-0.357 c -1.178,0.204 -2.303,0.357 -3.581,0.357 -5.933,0 -10.587,-3.528 -10.587,-9.052 0,-2.967 1.381,-5.062 3.58,-6.393 v -0.411 c -1.024,-1.429 -1.432,-2.556 -1.432,-3.784 0,-1.124 0.358,-1.992 1.074,-2.763 v -0.407 c -2.301,-1.892 -3.733,-3.99 -3.733,-6.65 0,-5.472 5.115,-7.211 10.127,-7.211 7.722,0 12.683,4.092 12.683,9.257"
       style="fill:#000000;fill-opacity:1;fill-rule:nonzero;stroke:none"
       id="path228" /><path
       d="m 1136.123,522.249 v 18.004 c 0,5.526 -2.506,7.775 -7.211,7.775 -3.683,0 -6.649,-1.434 -9.002,-2.916 l -0.357,0.103 -0.153,2.659 -4.451,-0.561 v -25.064 h 4.758 v 19.54 c 2.762,1.585 5.115,2.098 7.057,2.098 3.07,0 4.604,-1.281 4.604,-4.555 v -17.083 z"
       style="fill:#000000;fill-opacity:1;fill-rule:nonzero;stroke:none"
       id="path232" /><path
       d="m 371.2471,477.6709 1.482,-13.299 c -3.477,-0.154 -6.803,0.613 -10.177,2.148 l 0.971,9.259 -4.297,-0.156 -0.869,-9.817 c -1.637,-1.024 -3.476,-1.281 -5.064,-1.281 -1.381,0 -2.709,0.204 -3.987,0.667 -0.154,2.556 -0.461,6.136 -0.871,9.666 l -4.501,-0.614 1.738,-14.27 c -2.352,-3.326 -5.88,-4.552 -9.973,-4.552 -6.187,0 -9.306,2.864 -9.306,8.849 0,2.199 0.407,4.448 1.124,6.954 l -3.63,0.768 c -1.331,-3.477 -1.792,-6.494 -1.792,-8.95 0,-8.131 5.268,-12.429 12.993,-12.429 7.056,0 13.193,3.58 14.164,9.974 1.178,-0.408 2.507,-0.665 3.787,-0.665 2.76,0 5.626,0.871 8.132,2.864 h 0.407 c 2.969,-1.739 5.832,-2.864 9.412,-2.864 2.096,0 3.478,0.511 4.092,1.072 1.023,0.77 1.585,2.305 1.585,4.298 0,1.995 -0.461,8.131 -0.972,12.786 z"
       style="fill:#000000;fill-opacity:1;fill-rule:nonzero;stroke:none"
       id="path236" /><path
       d="m 415.4932,487.5918 3.888,0.563 -0.41,4.451 c -1.483,0.05 -3.121,-0.156 -4.399,-0.667 0.104,-1.381 0.461,-2.76 0.921,-4.347"
       style="fill:#000000;fill-opacity:1;fill-rule:nonzero;stroke:none"
       id="path240" /><path
       d="m 426.6943,492.606 c -1.484,0.05 -3.12,-0.156 -4.4,-0.667 0.103,-1.381 0.46,-2.76 0.921,-4.347 l 3.886,0.563 z"
       style="fill:#000000;fill-opacity:1;fill-rule:nonzero;stroke:none"
       id="path244" /><path
       d="m 420.3008,467.084 c -2.966,1.686 -5.114,4.191 -5.422,6.854 0.614,2.606 3.274,4.961 5.883,4.961 2.659,0 5.318,-1.535 6.186,-6.547 -1.328,-2.251 -3.374,-3.94 -6.29,-5.268 z m 18.72,-0.717 c -1.74,-1.175 -3.171,-1.535 -5.369,-1.535 h -10e-4 -0.002 -3.938 c -1.535,0 -3.069,0.153 -4.551,0.46 l -0.204,0.207 c 3.324,2.402 5.419,5.163 5.419,7.976 0,4.553 -3.68,10.179 -9.053,10.179 -5.061,0 -9.919,-5.525 -9.919,-10.331 0,-2.609 1.431,-5.422 4.041,-7.673 l -0.207,-0.204 c -2.096,-0.357 -4.398,-0.614 -7.007,-0.614 -0.01,0 -0.017,-0.003 -0.027,-0.003 -0.009,0 -0.016,0.003 -0.026,0.003 -2.199,0 -4.244,0.717 -5.676,5.014 l -5.115,15.136 -4.397,-0.664 6.443,-17.591 -0.204,-0.257 c -3.02,-1.638 -5.883,-2.252 -8.952,-2.252 -3.427,0 -4.398,0.767 -4.398,2.456 0,0.41 0,0.614 0.103,1.124 l -3.58,0.358 c -0.307,-1.022 -0.46,-2.096 -0.46,-3.067 0,-3.938 2.555,-5.576 7.671,-5.576 5.064,0 8.591,1.585 11.252,3.837 h 0.41 c 1.687,-2.302 3.937,-3.223 6.903,-3.223 0.01,0 0.017,0.003 0.026,0.003 0.01,0 0.017,-0.003 0.027,-0.003 4.041,0 8.031,0.921 11.458,2.302 h 0.407 c 3.837,-1.842 8.081,-2.249 13.554,-2.302 0.001,0 0.001,0 0.002,0 0,0 0,0 10e-4,0 2.913,0 5.369,0.818 7.107,2.353 1.588,1.228 2.609,2.966 2.659,6.189 l 0.361,29.153 -5.013,-0.511 z"
       style="fill:#000000;fill-opacity:1;fill-rule:nonzero;stroke:none"
       id="path248" /><path
       d="m 453.4443,460.127 h 4.397 l 0.308,37.491 -4.909,-0.463 z"
       style="fill:#000000;fill-opacity:1;fill-rule:nonzero;stroke:none"
       id="path252" /><path
       d="m 495.7432,464.271 h -13.144 v 18.462 c 2.607,0.206 4.706,0.257 6.29,0.257 3.121,0 5.116,-0.103 6.65,-0.307 0.1,-1.278 0.204,-2.662 0.204,-4.705 z m -7.774,22.759 c -3.478,0 -7.468,-0.256 -10.791,-0.563 l 0.357,-4.041 v -22.299 h 23.22 v 17.441 c 0,8.492 -1.842,9.462 -12.786,9.462"
       style="fill:#000000;fill-opacity:1;fill-rule:nonzero;stroke:none"
       id="path256" /><path
       d="m 508.8887,486.8745 c -1.228,0 -2.762,0 -4.04,-0.05 l 0.41,-4.091 h 3.681 v -11.662 h 4.961 v 11.455 c 0,3.734 -1.124,4.348 -5.012,4.348"
       style="fill:#000000;fill-opacity:1;fill-rule:nonzero;stroke:none"
       id="path260" /><path
       d="m 522.3926,486.8242 -0.511,8.185 -4.501,-0.511 0.358,-7.674 0.613,-4.091 h 14.168 l 0.102,-0.357 -10.076,-22.249 h 5.369 l 9.719,22.963 -0.46,3.734 z"
       style="fill:#000000;fill-opacity:1;fill-rule:nonzero;stroke:none"
       id="path264" /><path
       d="m 564.1807,474.0884 c -0.82,-8.082 -4.501,-10.024 -10.944,-10.024 -1.792,0 -3.428,0.05 -5.015,0.257 l -0.562,5.218 c 4.859,0.614 8.592,2.453 9.411,7.772 l 1.637,9.463 h -4.707 l -1.072,-7.775 c -0.563,-3.99 -2.252,-5.472 -5.218,-5.983 h -0.41 l -1.432,13.808 h -4.808 l 2.405,-21.326 c 0.153,-1.535 0.358,-3.019 0.665,-4.861 2.916,-0.664 6.546,-0.817 9.409,-0.817 7.828,0 13.913,2.812 15.142,12.683 l 1.738,14.271 h -5.011 z"
       style="fill:#000000;fill-opacity:1;fill-rule:nonzero;stroke:none"
       id="path268" /><path
       d="m 578.0937,486.8745 c -1.278,0 -2.659,0 -3.938,-0.05 l 0.254,-4.091 h 3.684 v -22.607 h 5.012 v 22.35 c 0,3.684 -1.125,4.398 -5.012,4.398"
       style="fill:#000000;fill-opacity:1;fill-rule:nonzero;stroke:none"
       id="path272" /><path
       d="m 595.5342,487.0303 c -2.916,0 -5.575,-0.156 -7.978,-0.357 l 0.307,-4.146 c 2.455,0.256 5.269,0.412 7.724,0.412 2.453,0 4.551,-0.053 5.932,-0.256 0.155,-1.434 0.155,-2.662 0.155,-4.298 v -18.258 h 5.011 v 17.901 c 0,7.978 -0.921,9.002 -11.151,9.002"
       style="fill:#000000;fill-opacity:1;fill-rule:nonzero;stroke:none"
       id="path276" /><path
       d="m 615.4307,486.8745 c -1.228,0 -2.763,0 -4.04,-0.05 l 0.41,-4.091 h 3.681 v -11.662 h 4.961 v 11.455 c 0,3.734 -1.124,4.348 -5.012,4.348"
       style="fill:#000000;fill-opacity:1;fill-rule:nonzero;stroke:none"
       id="path280" /><path
       d="m 645.0967,470.5107 c 0,-1.995 -0.053,-4.144 -0.46,-6.139 -0.972,-0.358 -1.945,-0.511 -3.377,-0.511 -1.995,0 -3.937,0.307 -5.726,0.818 l -0.307,-3.784 c 1.636,-0.821 3.374,-1.279 5.676,-1.279 2.71,0 5.115,0.458 6.647,2.097 1.842,1.894 2.509,5.472 2.509,9.973 v 19.639 h -4.962 z"
       style="fill:#000000;fill-opacity:1;fill-rule:nonzero;stroke:none"
       id="path284" /><path
       d="m 660.8516,475.062 c 0.308,2.76 1.226,4.501 2.199,5.729 1.328,1.125 3.12,1.482 4.552,1.482 3.63,0 5.422,-2.353 5.575,-7.211 z m 6.954,10.944 c -7.722,0 -11.814,-5.778 -11.814,-13.503 0,-8.232 4.707,-12.937 12.328,-12.937 2.146,0 5.165,0.357 7.875,1.379 l 0.257,3.633 c -2.713,-0.82 -5.372,-1.127 -7.468,-1.127 -4.962,0 -7.928,2.405 -8.185,8.438 h 16.727 c 0.306,1.434 0.306,2.559 0.306,3.89 0,6.698 -3.939,10.227 -10.026,10.227"
       style="fill:#000000;fill-opacity:1;fill-rule:nonzero;stroke:none"
       id="path288" /><path
       d="m 688.5205,482.376 -0.308,0.101 -0.102,3.275 -4.501,-0.563 v -25.062 h 4.758 V 479 c 2.148,1.738 3.886,2.249 5.931,2.249 0.868,0 1.74,-0.101 2.71,-0.307 l 0.361,4.348 c -0.921,0.357 -1.792,0.513 -2.662,0.513 -2.096,0 -4.142,-1.074 -6.187,-3.427"
       style="fill:#000000;fill-opacity:1;fill-rule:nonzero;stroke:none"
       id="path292" /><path
       d="m 717.4189,466.4194 c -2.659,-2.355 -4.705,-2.866 -6.597,-2.866 -3.12,0 -4.655,1.228 -4.655,4.602 v 17.134 h -4.755 v -17.949 c 0,-5.525 2.557,-7.827 7.261,-7.827 3.427,0 6.14,1.281 8.695,3.479 l 0.358,-0.105 0.206,-2.76 h 4.245 v 25.162 h -4.758 z"
       style="fill:#000000;fill-opacity:1;fill-rule:nonzero;stroke:none"
       id="path296" /><path
       d="m 733.0205,479.8198 c 0,0.765 0.359,1.378 1.023,1.892 0.819,0.407 2.25,0.714 3.735,0.714 1.635,0 3.887,-0.357 6.34,-1.484 l 0.82,3.787 c -2.353,0.867 -4.552,1.278 -6.753,1.278 -5.522,0 -9.613,-2.609 -9.613,-6.801 0,-7.367 12.326,-7.827 12.326,-12.839 0,-0.868 -0.357,-1.638 -0.922,-2.199 -0.971,-0.614 -2.302,-0.868 -3.733,-0.868 -1.945,0 -4.451,0.561 -7.264,1.942 l -0.868,-3.784 c 2.352,-1.177 4.756,-1.842 7.621,-1.842 6.547,0 9.82,3.477 9.82,7.468 0,7.618 -12.532,8.592 -12.532,12.736"
       style="fill:#000000;fill-opacity:1;fill-rule:nonzero;stroke:none"
       id="path300" /><path
       d="m 765.0889,466.6211 c -1.892,-2.043 -4.244,-2.914 -6.29,-2.914 -2.916,0 -4.45,1.688 -4.45,4.194 0,1.228 0.206,2.353 0.819,3.274 1.943,1.074 4.192,1.124 6.394,1.124 1.329,0 2.352,-0.05 3.527,-0.153 z m -4.755,19.385 c -2.967,0 -6.036,-0.561 -8.799,-1.431 l -0.306,-3.94 c 2.762,0.82 5.882,1.331 8.338,1.331 4.654,0 5.575,-1.995 5.575,-5.986 v -0.508 c -0.974,0.101 -1.895,0.101 -3.019,0.101 -2.813,0 -6.137,-0.204 -8.285,-1.382 -2.557,-1.225 -4.145,-3.784 -4.145,-7.057 0,-3.326 2.203,-7.367 7.674,-7.367 2.967,0 5.574,1.178 7.775,3.326 l 0.304,-0.1 0.361,-2.866 h 4.091 v 16.724 c 0,6.29 -3.377,9.155 -9.564,9.155"
       style="fill:#000000;fill-opacity:1;fill-rule:nonzero;stroke:none"
       id="path304" /><path
       d="m 781.7148,466.314 v 29.819 l -4.756,-0.613 v -30.227 c 0,-2.046 0.102,-3.528 0.972,-4.449 0.971,-0.87 2.302,-1.024 3.937,-1.024 1.381,0 2.813,0.154 3.991,0.411 l 0.253,3.577 -4.347,0.307 c -0.05,0.717 -0.05,1.281 -0.05,2.199"
       style="fill:#000000;fill-opacity:1;fill-rule:nonzero;stroke:none"
       id="path308" /><path
       d="m 794.3496,475.062 c 0.308,2.76 1.226,4.501 2.199,5.729 1.328,1.125 3.12,1.482 4.552,1.482 3.63,0 5.422,-2.353 5.575,-7.211 z m 6.954,10.944 c -7.722,0 -11.814,-5.778 -11.814,-13.503 0,-8.232 4.707,-12.937 12.328,-12.937 2.146,0 5.165,0.357 7.875,1.379 l 0.257,3.633 c -2.713,-0.82 -5.372,-1.127 -7.468,-1.127 -4.962,0 -7.928,2.405 -8.185,8.438 h 16.727 c 0.306,1.434 0.306,2.559 0.306,3.89 0,6.698 -3.939,10.227 -10.026,10.227"
       style="fill:#000000;fill-opacity:1;fill-rule:nonzero;stroke:none"
       id="path312" /><path
       d="m 846.5664,485.9033 c -3.681,0 -7.007,-1.482 -9.46,-2.964 l -0.359,0.151 c -1.125,2.048 -3.171,2.813 -6.137,2.813 -3.273,0 -6.19,-1.329 -8.542,-2.914 l -0.357,0.101 -0.154,2.662 -4.45,-0.563 v -25.062 h 4.758 v 19.64 c 2.555,1.482 4.857,1.995 6.646,1.995 3.02,0 4.501,-1.278 4.501,-4.554 v -17.081 h 4.758 v 17.951 c 0,0.664 0,1.228 -0.102,1.742 2.659,1.429 4.911,1.942 6.802,1.942 3.017,0 4.449,-1.278 4.449,-4.554 v -17.081 h 4.757 v 18.002 c 0,5.525 -2.456,7.774 -7.11,7.774"
       style="fill:#000000;fill-opacity:1;fill-rule:nonzero;stroke:none"
       id="path316" /><path
       d="m 888.2031,478.7959 c 0,7.158 -1.944,8.234 -10.333,8.234 -2.76,0 -5.778,-0.103 -8.438,-0.357 l 0.357,-4.146 c 2.456,0.207 5.679,0.36 8.081,0.36 2.046,0 3.684,-0.103 5.065,-0.307 0.204,-1.125 0.254,-2.252 0.254,-3.53 v -14.628 h -13.911 v -4.295 h 22.913 v 4.144 l -3.988,0.254 z"
       style="fill:#000000;fill-opacity:1;fill-rule:nonzero;stroke:none"
       id="path320" /><path
       d="m 897.8193,486.8745 c -1.278,0 -2.659,0 -3.938,-0.05 l 0.257,-4.091 h 3.681 v -22.607 h 5.013 v 22.35 c 0,3.684 -1.125,4.398 -5.013,4.398"
       style="fill:#000000;fill-opacity:1;fill-rule:nonzero;stroke:none"
       id="path324" /><path
       d="m 929.7344,486.8242 h -4.857 l -3.785,-13.144 -0.307,-0.05 -8.951,13.4 -5.166,-0.513 8.492,-12.069 c 2.659,-3.734 5.215,-6.853 7.467,-9.666 l -0.103,-0.36 -14.015,0.103 v -4.398 h 19.794 l 0.614,3.988 -5.165,6.292 v 0.41 c 2.352,4.245 3.937,9.053 5.982,16.007"
       style="fill:#000000;fill-opacity:1;fill-rule:nonzero;stroke:none"
       id="path328" /><path
       d="m 936.4375,486.8745 c -1.228,0 -2.763,0 -4.041,-0.05 l 0.41,-4.091 h 3.682 v -11.662 h 4.961 v 11.455 c 0,3.734 -1.125,4.348 -5.012,4.348"
       style="fill:#000000;fill-opacity:1;fill-rule:nonzero;stroke:none"
       id="path332" /><path
       d="m 962.624,474.7021 c -0.204,-4.654 -2.096,-7.161 -5.573,-8.746 l -6.24,21.125 -4.961,-0.358 7.057,-22.198 -6.853,-2.249 v -4.605 l 9.769,3.223 c 6.29,2.046 10.841,5.473 11.455,12.887 l 1.075,13.043 h -5.166 z"
       style="fill:#000000;fill-opacity:1;fill-rule:nonzero;stroke:none"
       id="path336" /><path
       d="m 976.334,486.8745 c -1.278,0 -2.66,0 -3.938,-0.05 l 0.256,-4.091 h 3.682 v -22.607 h 5.012 v 22.35 c 0,3.684 -1.125,4.398 -5.012,4.398"
       style="fill:#000000;fill-opacity:1;fill-rule:nonzero;stroke:none"
       id="path340" /><path
       d="m 1011.3711,487.0303 c -4.501,0 -9.463,-0.206 -13.811,-0.513 l 0.411,-4.141 4.551,0.307 -0.05,-15.192 c 0,-2.199 -0.564,-3.22 -3.07,-3.22 -0.664,0 -1.227,0.05 -2.249,0.1 v -4.04 c 0.921,-0.257 2.249,-0.358 3.374,-0.358 5.475,0 6.906,2.406 6.906,6.597 v 16.316 c 1.635,0.053 3.121,0.103 4.348,0.103 2.659,0 5.012,-0.103 6.904,-0.462 0.204,-1.789 0.204,-3.477 0.204,-5.113 v -17.287 h 5.011 v 17.594 c 0,8.132 -1.532,9.309 -12.529,9.309"
       style="fill:#000000;fill-opacity:1;fill-rule:nonzero;stroke:none"
       id="path344" /><path
       d="m 1032.8525,486.8745 c -1.278,0 -2.659,0 -3.938,-0.05 l 0.257,-4.091 h 3.681 v -22.607 h 5.012 v 22.35 c 0,3.684 -1.124,4.398 -5.012,4.398"
       style="fill:#000000;fill-opacity:1;fill-rule:nonzero;stroke:none"
       id="path348" /><path
       d="m 1048.9141,486.9272 c -1.895,0 -2.762,-0.053 -4.093,-0.103 l 0.257,-4.091 h 5.268 v -18.311 h -6.752 v -4.295 h 11.714 v 17.951 c 0,6.65 0.153,8.849 -6.394,8.849"
       style="fill:#000000;fill-opacity:1;fill-rule:nonzero;stroke:none"
       id="path352" /><path
       d="m 1077.6064,487.0303 c -3.683,0 -6.906,-0.77 -10.587,-2.762 l -0.971,2.913 -4.554,-0.307 1.945,-5.932 -2.148,-20.815 h 5.064 l 1.738,20.867 c 3.221,1.432 6.34,1.739 8.696,1.739 1.225,0 2.146,-0.05 2.966,-0.206 0.254,-1.993 0.254,-3.988 0.254,-6.084 v -12.021 h -7.621 v -4.295 h 12.532 v 17.133 c 0,7.979 -1.381,9.77 -7.314,9.77"
       style="fill:#000000;fill-opacity:1;fill-rule:nonzero;stroke:none"
       id="path356" /><path
       d="m 1112.7451,479.46 0.664,7.364 h -4.962 l -0.357,-6.29 c -0.103,-2.813 -0.87,-5.676 -1.841,-7.366 l -0.358,-0.151 c -3.683,4.498 -7.571,9.46 -11.611,14.064 l -5.522,-0.408 c 1.995,-2.149 4.041,-4.504 6.035,-6.803 v -0.257 c -1.944,-2.506 -3.172,-5.779 -3.58,-9.872 l -0.87,-9.614 h 5.011 l 0.513,8.082 c 0.154,2.863 0.715,5.678 1.586,8.028 l 0.254,0.05 c 3.787,-4.704 8.184,-10.381 12.326,-16.16 h 5.218 v 0.561 c -2.149,3.173 -4.298,6.089 -6.496,9.002 2.148,2.303 3.633,5.832 3.99,9.77"
       style="fill:#000000;fill-opacity:1;fill-rule:nonzero;stroke:none"
       id="path360" /><path
       d="m 1122.4141,486.8242 -0.511,8.185 -4.501,-0.511 0.358,-7.674 0.613,-4.091 h 14.168 l 0.101,-0.357 -10.075,-22.249 h 5.369 l 9.72,22.963 -0.461,3.734 z"
       style="fill:#000000;fill-opacity:1;fill-rule:nonzero;stroke:none"
       id="path364" /><path
       d="m 1460.3662,604.1084 h 11.865 l 0.101,-0.36 -8.795,-19.894 h 9.052 l 8.642,21.175 -0.511,5.933 h -13.193 l -0.41,8.438 -7.775,-0.664 0.256,-7.774 z"
       style="fill:#000000;fill-opacity:1;fill-rule:nonzero;stroke:none"
       id="path368" /><path
       d="m 1491.1035,603.1348 c -2.352,-2.353 -3.887,-6.343 -4.193,-10.998 l -0.514,-8.282 h 8.288 l 0.153,6.39 c 0.051,2.713 0.254,4.911 0.715,7.367 h 0.36 c 3.12,-4.398 6.033,-9.052 8.795,-13.757 h 8.9 v 0.614 c -1.996,3.477 -3.99,6.597 -5.983,9.666 2.759,2.71 4.041,7.261 4.245,11.762 l 0.255,5.065 h -8.133 l -0.154,-4.554 c -0.05,-2.456 -0.154,-4.911 -0.664,-6.904 h -0.257 c -2.813,4.041 -5.522,7.775 -8.438,11.712 l -9.461,-0.664 c 2.199,-2.609 4.194,-4.858 6.086,-7.264 z"
       style="fill:#000000;fill-opacity:1;fill-rule:nonzero;stroke:none"
       id="path372" /><path
       d="m 1518.0098,604.1084 h 11.865 l 0.102,-0.36 -8.797,-19.894 h 9.053 l 8.642,21.175 -0.511,5.933 h -13.196 l -0.408,8.438 -7.773,-0.664 0.255,-7.774 z"
       style="fill:#000000;fill-opacity:1;fill-rule:nonzero;stroke:none"
       id="path376" /><path
       d="m 1555.6035,591.4229 -0.103,-0.357 h -11.304 v -7.211 h 21.841 l 1.072,5.983 -4.755,5.062 v 0.41 c 2.763,3.48 3.99,7.518 5.575,15.652 h -7.878 l -1.995,-11.05 -0.307,-0.051 -6.8,11.408 -8.899,-0.717 6.854,-10.026 c 2.966,-4.295 4.704,-6.444 6.699,-9.103"
       style="fill:#000000;fill-opacity:1;fill-rule:nonzero;stroke:none"
       id="path380" /><path
       d="m 1581.3301,604.0557 c 1.33,0 2.559,-0.05 3.633,-0.204 0.1,-0.717 0.153,-1.535 0.153,-2.712 v -9.974 h -11.714 v -7.311 h 23.63 v 6.904 l -3.377,0.307 v 9.666 c 0,9.153 -2.812,10.537 -11.505,10.537 -2.966,0 -6.036,-0.106 -8.799,-0.463 l 0.614,-7.107 c 2.252,0.153 4.962,0.357 7.365,0.357"
       style="fill:#000000;fill-opacity:1;fill-rule:nonzero;stroke:none"
       id="path384" /><path
       d="m 1466.5,513.4473 -0.613,5.983 c -1.943,0.204 -4.195,-0.156 -5.984,-0.717 0.104,-2.199 0.562,-3.988 1.228,-5.933 z"
       style="fill:#000000;fill-opacity:1;fill-rule:nonzero;stroke:none"
       id="path388" /><path
       d="m 1474.6318,519.4302 c -1.942,0.204 -4.194,-0.156 -5.983,-0.717 0.103,-2.199 0.564,-3.988 1.228,-5.932 l 5.369,0.666 z"
       style="fill:#000000;fill-opacity:1;fill-rule:nonzero;stroke:none"
       id="path392" /><path
       d="m 1494.2744,549.8613 -2.403,-0.46 c -2.352,0.664 -4.861,1.738 -5.321,2.762 0.666,0.357 1.485,0.564 2.455,0.564 0.768,0 1.688,-0.207 2.456,-0.513 l 0.664,4.754 c -1.174,0.463 -2.096,0.614 -3.067,0.614 -3.58,0 -5.985,-2.913 -5.985,-6.186 0,-1.125 0.664,-2.202 1.791,-3.274 l -2.865,-0.563 v -3.528 l 12.275,2.043 z"
       style="fill:#000000;fill-opacity:1;fill-rule:nonzero;stroke:none"
       id="path396" /><path
       d="m 1579.6914,545.4609 -0.613,5.985 c -1.943,0.204 -4.195,-0.153 -5.984,-0.717 0.104,-2.199 0.564,-3.988 1.228,-5.933 z"
       style="fill:#000000;fill-opacity:1;fill-rule:nonzero;stroke:none"
       id="path400" /><path
       d="m 1566.2412,544.7964 5.369,0.665 -0.614,5.985 c -1.942,0.204 -4.192,-0.153 -5.983,-0.717 0.104,-2.199 0.564,-3.988 1.228,-5.933"
       style="fill:#000000;fill-opacity:1;fill-rule:nonzero;stroke:none"
       id="path404" /><path
       d="m 1586.3916,518.7134 c 0.104,-2.199 0.563,-3.988 1.228,-5.933 l 5.369,0.667 -0.614,5.983 c -1.942,0.204 -4.194,-0.156 -5.983,-0.717"
       style="fill:#000000;fill-opacity:1;fill-rule:nonzero;stroke:none"
       id="path408" /><path
       d="m 1595.4443,532.9312 c 0,2.098 -0.204,6.703 -0.511,10.69 l -7.674,-0.767 1.381,-12.529 c -2.045,-0.718 -3.834,-0.972 -6.595,-0.972 -2.2,0 -4.45,0.254 -6.137,0.972 l 0.357,11.251 -7.415,-0.41 -0.36,-10.892 c -1.482,-0.563 -3.17,-0.921 -5.983,-0.921 -10e-4,0 -10e-4,0 0,0 -10e-4,0 -10e-4,0 0,0 -4.452,0 -4.859,1.228 -5.116,3.528 l -0.767,8.695 -7.415,-0.665 1.075,-8.491 c 0.101,-0.971 0.254,-1.995 0.407,-3.016 -1.021,-0.207 -2.148,-0.307 -3.222,-0.307 -1.585,0 -3.478,0.307 -5.42,0.87 l 1.328,8.746 -7.16,0.307 -1.022,-8.952 c -1.178,-0.715 -2.148,-0.871 -3.529,-0.871 -1.739,0 -3.018,0.257 -4.502,0.871 l 0.461,3.07 0.767,5.575 -6.957,-0.156 -0.664,-6.391 c -0.204,-2.199 -1.738,-2.813 -4.705,-2.813 -0.01,0 -0.015,-0.003 -0.025,-0.003 -0.01,0 -0.016,0.003 -0.026,0.003 -1.994,0 -4.14,0.307 -5.625,1.022 l 0.511,28.743 -8.438,-0.715 0.51,-28.078 c -1.278,-0.564 -2.813,-0.972 -5.215,-0.972 h -10e-4 c -10e-4,0 -10e-4,0 -10e-4,0 -2.2,0 -4.45,0.254 -6.137,0.972 l 0.357,11.251 -7.415,-0.41 -0.36,-10.892 c -1.482,-0.563 -3.17,-0.921 -5.982,-0.921 0,0 -10e-4,0 0,0 0,0 0,0 -10e-4,0 -2.199,0 -4.449,0.254 -6.136,0.972 l 0.357,11.251 -7.415,-0.41 -0.36,-10.892 c -1.482,-0.563 -3.17,-0.921 -5.983,-0.921 0,0 0,0 0,0 0,0 0,0 0,0 -1.842,0 -4.041,0.151 -5.83,0.972 l 0.254,28.793 -8.438,-0.715 0.87,-35.139 c -2.405,-1.328 -4.911,-1.992 -7.774,-1.992 -4.912,0 -6.803,2.096 -6.803,6.084 0,1.791 0.306,3.99 1.177,6.652 l -6.342,1.071 c -1.586,-4.04 -2.099,-7.109 -2.099,-9.615 0,-7.672 4.86,-12.58 13.3,-12.58 7.671,0 14.32,3.99 15.599,10.994 v -0.05 l 0.306,0.101 c 1.689,-1.532 3.989,-2.199 5.78,-2.199 v 0 0 c 3.324,0 6.65,0.667 9.513,2.866 h 0.41 c 2.966,-2.456 5.984,-2.866 9.614,-2.866 h 10e-4 v 0 c 3.323,0 6.649,0.667 9.512,2.866 h 0.41 c 2.966,-2.456 5.984,-2.866 9.615,-2.866 h 10e-4 10e-4 c 3.119,0 6.136,0.563 9.052,2.866 h 0.358 c 2.761,-2.403 6.138,-2.866 8.847,-2.866 0.01,0 0.018,0.003 0.026,0.003 0.01,0 0.016,-0.003 0.025,-0.003 3.223,0 6.394,0.717 8.389,2.506 h 0.407 c 2.659,-2.35 5.575,-2.71 7.214,-2.71 2.76,0 5.268,1.024 7.107,2.352 h 0.36 c 1.942,-1.585 4.092,-2.506 7.364,-2.506 2.813,0 5.115,0.564 7.415,2.149 h 0.359 c 1.893,-1.124 4.449,-1.791 7.826,-1.791 10e-4,0 10e-4,0 0,0 10e-4,0 10e-4,0 0,0 3.324,0 6.65,0.667 9.513,2.866 h 0.41 c 2.966,-2.456 5.984,-2.866 9.615,-2.866 3.937,0 7.363,0.77 9.308,1.842 2.76,1.534 4.091,4.553 4.091,9.359"
       style="fill:#000000;fill-opacity:1;fill-rule:nonzero;stroke:none"
       id="path412" /><path
       d="m 1443.0762,465.5405 c -0.817,-0.254 -2.096,-0.307 -3.17,-0.307 -1.074,0 -1.484,0.053 -2.302,0.204 v 7.417 h 2.659 c 2.813,0 4.195,-1.022 4.195,-3.99 0,-1.379 -0.308,-2.403 -1.382,-3.324 m -5.472,19.64 c 1.024,0.053 2.045,0.103 2.609,0.103 2.199,0 3.681,-0.921 3.681,-3.223 0,-1.331 -0.51,-2.453 -1.635,-3.173 -0.717,-0.151 -1.842,-0.201 -3.324,-0.201 h -1.331 z m 10.23,-9.053 v 0.411 c 2.76,1.585 4.092,3.783 4.092,6.803 0,5.112 -3.888,7.824 -11.713,7.824 -2.252,0 -7.007,-0.206 -10.69,-0.82 v -30.738 c 5.678,-0.561 9.205,-0.561 9.872,-0.561 8.643,0 13.348,3.528 13.348,9.921 0,3.937 -1.789,6.086 -4.909,7.16"
       style="fill:#000000;fill-opacity:1;fill-rule:nonzero;stroke:none"
       id="path416" /><path
       d="m 1465.7383,475.1543 c 0.153,1.384 0.511,2.762 1.124,3.839 1.075,0.815 2.56,0.921 3.224,0.921 2.455,0 3.376,-1.434 3.58,-4.76 z m 4.808,10.743 c -8.031,0 -12.837,-5.268 -12.837,-13.863 0,-8.746 5.166,-13.04 13.244,-13.04 2.558,0 5.679,0.36 8.492,1.33 l 0.41,5.727 c -3.223,-0.614 -5.322,-0.765 -7.878,-0.765 -3.683,0 -5.728,1.022 -6.239,5.012 h 15.241 c 0.461,2.043 0.461,3.578 0.461,5.216 0,6.649 -4.091,10.383 -10.894,10.383"
       style="fill:#000000;fill-opacity:1;fill-rule:nonzero;stroke:none"
       id="path420" /><path
       d="m 1495.9678,466.4614 10.228,13.86 -0.104,4.962 h -19.28 l -0.36,-6.089 h 10.23 l 0.051,-0.357 -10.485,-13.654 -0.254,-5.576 h 19.844 l 0.715,6.494 h -10.484 z"
       style="fill:#000000;fill-opacity:1;fill-rule:nonzero;stroke:none"
       id="path424" /><path
       d="m 1525.4805,466.8213 c -1.739,-1.281 -3.273,-1.535 -4.194,-1.535 -1.893,0 -2.763,0.972 -2.763,2.657 0,0.614 0.103,1.278 0.563,2.098 0.869,0.511 2.096,0.768 3.528,0.768 0.667,0 1.792,-0.053 2.966,-0.103 z m -2.967,19.177 c -2.916,0 -6.446,-0.564 -9.463,-1.585 l -0.46,-6.393 c 2.916,0.817 6.444,1.227 8.642,1.227 4.451,0 4.555,-1.688 4.451,-3.988 v -0.105 c -0.613,0.053 -1.381,0.105 -2.352,0.105 -2.559,0 -5.269,-0.41 -7.161,-1.126 -3.376,-1.279 -5.319,-4.142 -5.319,-7.365 0,-3.12 1.789,-7.571 7.979,-7.571 2.609,0 4.808,0.871 7.11,2.969 l 0.307,-0.105 0.767,-2.453 h 6.444 v 16.88 c 0,6.493 -4.195,9.51 -10.945,9.51"
       style="fill:#000000;fill-opacity:1;fill-rule:nonzero;stroke:none"
       id="path428" /><path
       d="m 1548.3926,468.4565 v 27.721 l -7.875,-1.076 v -27.822 c 0,-3.274 0.408,-5.42 1.688,-6.597 1.379,-1.228 3.171,-1.434 5.063,-1.434 1.842,0 3.733,0.256 4.758,0.462 l 0.46,6.084 -3.99,0.307 c -0.051,0.72 -0.104,1.434 -0.104,2.355"
       style="fill:#000000;fill-opacity:1;fill-rule:nonzero;stroke:none"
       id="path432" /><path
       d="m 1564.4023,475.1543 c 0.153,1.384 0.511,2.762 1.125,3.839 1.074,0.815 2.559,0.921 3.223,0.921 2.455,0 3.376,-1.434 3.58,-4.76 z m 4.808,10.743 c -8.031,0 -12.839,-5.268 -12.839,-13.863 0,-8.746 5.168,-13.04 13.247,-13.04 2.558,0 5.679,0.36 8.491,1.33 l 0.41,5.727 c -3.222,-0.614 -5.321,-0.765 -7.878,-0.765 -3.682,0 -5.728,1.022 -6.239,5.012 h 15.242 c 0.46,2.043 0.46,3.578 0.46,5.216 0,6.649 -4.094,10.383 -10.894,10.383"
       style="fill:#000000;fill-opacity:1;fill-rule:nonzero;stroke:none"
       id="path436" /><path
       d="m 1593.9141,466.1016 c -0.05,0.72 -0.103,1.434 -0.103,2.355 v 27.721 l -7.875,-1.076 v -27.822 c 0,-3.274 0.408,-5.42 1.689,-6.597 1.379,-1.228 3.17,-1.435 5.062,-1.435 1.841,0 3.734,0.257 4.757,0.463 l 0.461,6.084 z"
       style="fill:#000000;fill-opacity:1;fill-rule:nonzero;stroke:none"
       id="path440" /><path
       d="m 1228.1309,597.9917 c 0.761,0.002 1.375,0.621 1.373,1.381 0,0.761 -0.621,1.375 -1.381,1.373 -0.761,-0.003 -1.375,-0.621 -1.373,-1.381 0,-0.761 0.62,-1.375 1.381,-1.373"
       style="fill:#000000;fill-opacity:1;fill-rule:nonzero;stroke:none"
       id="path444" /><path
       d="m 1366.5879,532.5972 -3.488,0.057 c 0.017,2.985 -0.057,7.336 -0.323,9.877 -0.89,-0.023 -1.398,-0.029 -2.158,-0.177 0.225,-4.353 0.3,-7.605 0.131,-11.578 l 7.906,-0.123 c 0.03,0.538 -0.089,7.73 -0.218,10.095 l 2.078,0.147 c 0.168,-3.425 0.166,-6.674 0.076,-10.538 0.764,-0.134 1.269,-0.126 2.162,-0.125 0.199,2.706 -0.18,12.371 -0.199,12.735 l -6.288,-0.436 c 0,0 0.326,-7.079 0.321,-9.934"
       style="fill:#000000;fill-opacity:1;fill-rule:nonzero;stroke:none"
       id="path448" /><path
       d="m 1303.9258,583.4761 c -0.274,-0.137 -1.104,-0.137 -1.657,-0.411 l 0.835,-1.253 c 0.411,0.281 1.239,0.418 0.828,1.247 -0.692,-0.138 0.013,-0.574 -0.817,-0.574 -0.173,0 -0.293,0.075 -0.293,0.175 -0.048,0.66 1.247,0.261 1.104,0.816"
       style="fill:#000000;fill-opacity:1;fill-rule:nonzero;stroke:none"
       id="path452" /><path
       d="m 1262.1748,582.4858 c -0.828,0 -0.124,0.436 -0.815,0.573 -0.413,-0.828 0.417,-0.966 0.828,-1.246 l 0.835,1.253 c -0.555,0.274 -1.384,0.274 -1.658,0.411 -0.143,-0.555 1.147,-0.156 1.103,-0.817 0,-0.099 -0.118,-0.174 -0.293,-0.174"
       style="fill:#000000;fill-opacity:1;fill-rule:nonzero;stroke:none"
       id="path456" /><path
       d="m 1322.1309,482.0244 13.217,-0.006 c 0.512,0.51 1.023,1.031 1.519,1.561 l -15.43,-0.004 c -12.632,3.046 -25.689,4.581 -38.792,4.578 -13.118,0.006 -26.17,-1.536 -38.812,-4.577 l -15.395,0.004 c 0.511,-0.525 1.01,-1.041 1.531,-1.552 l 13.18,-0.003 v -3.669 l -9.214,0.006 c 13.105,-11.265 30.134,-18.067 48.72,-18.076 18.585,0.002 35.62,6.811 48.713,18.068 l -9.236,10e-4 z"
       style="fill:#000000;fill-opacity:1;fill-rule:nonzero;stroke:none"
       id="path460" /><path
       d="m 1231.3496,549.8521 c 0.09,-0.507 0.205,-1.021 0.306,-1.525 l -21.496,-21.37 c -0.087,0.693 -0.164,1.4 -0.21,2.127 z m -20.092,0.262 19.15,13.297 c -0.036,-0.501 -0.044,-1.009 -0.065,-1.518 l -19.509,-13.88 c 0.12,0.707 0.265,1.408 0.424,2.101 m 9.24,23.204 13.45,5.681 c -0.192,-0.467 -0.377,-0.957 -0.545,-1.417 l -14.015,-6.13 c 0.362,0.62 0.733,1.255 1.11,1.866 m 14.332,16.862 6.293,1.236 c -0.287,-0.379 -0.597,-0.764 -0.87,-1.152 l -6.963,-1.465 c 0.499,0.469 1.025,0.932 1.54,1.381 m 99.228,-45.585 10e-4,-2.328 -102.836,-0.009 v 2.339 z m -62.104,4.124 c -0.213,0.02 -0.431,0.052 -0.649,0.084 -0.52,5.153 -1.379,9.041 -2.916,12.094 0.241,1.6 0.188,3.84 -0.35,5.8 1.57,-1.752 3.407,-2.895 5.389,-3.583 2.385,-0.822 0.99,-1.699 -0.267,-1.693 -1.268,-0.008 -2.473,0.184 -3.198,0.718 0.945,-1.563 2.807,-2.859 4.772,-3.429 1.342,-0.392 1.271,-1.247 0.028,-1.249 -0.063,0.009 -0.136,0.003 -0.203,0.023 -1.426,0.088 -3.434,0.782 -5.23,1.911 3.46,-4.84 8.853,-6.907 14.374,-7.464 2.889,-0.277 2.772,-2.77 -0.559,-2.898 -4.005,-0.137 -7.491,0.263 -11.49,2.764 2.161,-2.639 7.42,-4.764 11.888,-5.645 l -8.252,-10e-4 c 0.019,0.473 -0.154,2.302 -3.337,2.568 m 0.731,26.119 -3.034,-7.641 c -0.162,0.156 -0.313,0.316 -0.466,0.487 l -0.395,0.444 3.179,7.012 c 0.235,-0.102 0.469,-0.204 0.716,-0.302 m 5.089,-1.49 -1.817,-10.158 c -0.121,0.192 -0.277,0.374 -0.477,0.534 -0.174,0.153 -0.376,0.275 -0.616,0.4 l 2.144,9.378 c 0.249,-0.061 0.507,-0.108 0.766,-0.154 m 5.74,-19.913 c -0.583,0.064 -1.145,0.146 -1.701,0.253 l 0.458,19.205 c 0.137,-0.003 0.259,0.002 0.394,0 0.124,-0.006 0.258,0.002 0.394,-10e-4 z m -17.092,27.995 c 0.033,1.301 0.151,2.562 0.36,3.747 3.91,-4.37 9.562,-7.136 15.879,-7.125 6.294,-0.008 11.948,2.757 15.855,7.093 0.199,-1.194 0.314,-2.446 0.345,-3.756 -4.304,-3.881 -9.972,-6.243 -16.192,-6.242 -6.256,0.004 -11.948,2.379 -16.247,6.283 m 1.498,7.775 c 3.226,-4.688 8.638,-7.773 14.748,-7.777 6.095,0.005 11.473,3.082 14.711,7.732 0.18,-0.423 0.338,-0.864 0.477,-1.322 -3.486,-4.589 -9.001,-7.565 -15.194,-7.569 -6.22,10e-4 -11.734,2.999 -15.214,7.624 0.135,0.44 0.298,0.875 0.472,1.312 m 6.988,8.085 c 0.905,-3.432 4.042,-5.988 7.76,-5.984 3.707,0 6.83,2.54 7.751,5.96 1.855,-1.065 3.419,-2.449 4.693,-4.102 -2.272,-4.569 -6.99,-7.728 -12.445,-7.733 -5.468,0.003 -10.185,3.163 -12.477,7.764 1.287,1.651 2.85,3.038 4.718,4.095 m 4.203,9.275 c 0.029,0.475 -0.11,1.376 -0.295,1.823 1.226,0.072 2.6,0.094 3.854,0.099 1.244,0.002 2.607,-0.028 3.856,-0.098 -0.209,-0.446 -0.332,-1.339 -0.321,-1.829 -1.068,0.534 -2.268,0.851 -3.535,0.843 -1.293,-0.002 -2.484,-0.311 -3.559,-0.838 m 13.538,-31.726 c 0.234,0.096 0.48,0.194 0.713,0.302 l 3.177,-7.017 -0.394,-0.443 c -0.153,-0.174 -0.311,-0.336 -0.47,-0.486 z m -5.097,-1.492 c 0.261,0.041 0.519,0.093 0.775,0.156 l 2.138,-9.369 c -0.238,-0.133 -0.441,-0.257 -0.612,-0.411 -0.194,-0.159 -0.359,-0.336 -0.482,-0.538 z m 9.688,-6.649 c -0.535,-1.956 -0.603,-4.202 -0.34,-5.8 -1.541,-3.056 -2.407,-6.942 -2.921,-12.095 -0.214,-0.029 -0.438,-0.073 -0.657,-0.078 -2.451,-0.204 -3.103,-1.34 -3.281,-2.061 -1.42,0.163 -2.897,0.361 -4.167,0.611 2.296,0.769 3.938,1.597 5.158,2.382 1.23,0.799 2.007,1.535 2.584,2.134 -1.975,-1.169 -4.209,-1.985 -6.583,-2.393 0.219,0.351 0.338,0.763 0.334,1.131 0.026,0.782 -0.338,1.701 -1.371,2.331 4.616,1.2 7.2,3.186 9.95,6.532 -1.789,-1.123 -3.799,-1.809 -5.227,-1.907 -0.082,-0.02 -0.142,-0.023 -0.207,-0.014 -1.231,10e-4 -1.329,0.839 0.039,1.229 1.96,0.587 3.819,1.876 4.758,3.44 -0.716,-0.536 -1.939,-0.717 -3.193,-0.723 -1.256,-0.004 -2.67,0.875 -0.287,1.69 2.009,0.686 3.841,1.833 5.411,3.591 m 34.639,10.89 c -0.185,0.495 -0.361,0.956 -0.541,1.429 l 13.48,-5.704 c 0.373,-0.609 0.753,-1.241 1.114,-1.853 z m -7.723,13.839 6.335,-1.254 c 0.529,-0.446 1.05,-0.907 1.549,-1.374 l -7.002,1.456 c -0.284,0.397 -0.59,0.789 -0.882,1.172 m 30.343,-43.411 -19.557,13.881 c -0.021,0.525 -0.037,1.038 -0.067,1.548 l 19.197,-13.319 c 0.15,-0.701 0.289,-1.406 0.427,-2.11 m 0.67,-21.066 -21.547,21.416 c 0.123,0.498 0.227,1.017 0.326,1.509 l 21.428,-20.792 c -0.063,-0.73 -0.122,-1.434 -0.207,-2.133 m -20.153,-2.155 -6.927,9.801 -10e-4,2.426 0.209,0.003 8.884,-12.219 z m -8.483,8.736 -18.55,0.006 c -1.59,1.488 -3.393,2.64 -5.328,3.487 l 23.88,0.005 z m -5.855,-8.726 c -0.489,1.22 -1.68,2.093 -3.059,2.094 -1.392,-0.002 -2.578,-0.876 -3.062,-2.093 l -6.107,-0.008 v 7.194 l 14.654,0.007 0.931,-7.193 z m -4.802,-7.171 10e-4,5.974 c -0.01,0.959 0.784,1.747 1.746,1.741 0.948,0.002 1.736,-0.787 1.739,-1.735 v -5.973 c -0.01,-0.962 -0.783,-1.747 -1.746,-1.741 -0.948,-0.002 -1.735,0.786 -1.738,1.734 m 9.251,-1.191 1.422,-10.939 -18.106,0.006 0.01,10.938 6.11,-0.004 c 0.478,-1.223 1.668,-2.096 3.06,-2.094 1.378,-10e-4 2.565,0.873 3.046,2.102 z m 1.892,-14.603 h -18.572 l 10e-4,2.119 18.291,-0.009 z m 4.329,-7.136 -22.897,0.006 v 5.579 l 22.896,-0.005 z m -47.936,0.008 v 21.738 l 23.499,-0.004 10e-4,-21.738 z m -25.039,0.002 v 21.737 l 23.489,-0.006 0,-21.738 z m -1.539,-0.002 -22.906,-0.008 10e-4,5.579 22.905,0.008 z m -18.302,9.243 18.299,0.005 -10e-4,-2.118 h -18.573 z m 1.625,12.5 4.449,-0.012 c 0.488,-1.221 1.668,-2.097 3.058,-2.095 1.392,0.002 2.589,0.879 3.06,2.106 l 6.109,-0.004 -0.01,-10.939 -18.104,-0.006 z m 9.25,7.158 -10e-4,-5.973 c -0.01,-0.963 -0.773,-1.745 -1.746,-1.741 -0.948,-0.003 -1.736,0.786 -1.741,1.746 v 5.962 c 0.01,0.962 0.783,1.747 1.745,1.741 0.972,0.007 1.734,-0.775 1.739,-1.735 m -8.166,1.191 0.917,7.187 14.68,0.002 -0.01,-7.193 -6.11,0.004 c -0.477,1.223 -1.668,2.096 -3.059,2.094 -1.394,0.01 -2.566,-0.874 -3.062,-2.093 z m -2.506,12.221 23.891,0.008 c -1.93,-0.851 -3.734,-2.015 -5.323,-3.495 h -18.573 z m -4.254,1.55 v 2.157 l 96.311,-0.005 0.01,-2.142 z m 72.43,-13.779 -23.5,0.004 0.01,7.637 c 0.122,0.104 0.252,0.223 0.373,0.327 0.317,0.264 0.63,0.539 0.956,0.768 2.983,2.258 6.584,3.476 10.383,3.5 l 0.076,-0.006 c 3.773,-0.02 7.401,-1.234 10.379,-3.496 0.304,-0.232 0.64,-0.493 0.954,-0.76 0.126,-0.116 0.251,-0.221 0.378,-0.337 z m 7.418,-1.549 v -5.247 l -63.378,10e-4 v 5.246 z m -36.724,13.776 10.059,0.008 c -1.82,-0.799 -3.51,-1.873 -5.009,-3.22 -1.533,1.354 -3.24,2.419 -5.05,3.212 m 2.928,-3.494 c 0.327,-0.227 0.64,-0.493 0.953,-0.76 l 0.38,-0.337 -0.01,-7.637 -23.488,0.006 -0.01,7.634 c 0.132,0.108 0.266,0.215 0.397,0.334 0.292,0.257 0.607,0.533 0.942,0.764 2.973,2.256 6.596,3.48 10.373,3.498 l 0.075,-0.006 c 3.797,-0.014 7.402,-1.234 10.38,-3.496 m -50.216,-8.727 -2.18,-10e-4 8.885,12.228 0.172,0.006 v -2.487 z m 34.599,54.072 c -0.506,0.01 -1.028,-0.121 -1.611,-0.352 -0.564,0.586 -0.779,1.099 -0.848,1.722 0.192,-0.075 0.376,-0.128 0.556,-0.157 0.284,-0.052 0.548,0.223 0.546,0.53 0.029,1.362 0.294,2.081 0.549,2.489 0.29,0.024 0.533,0.134 0.705,0.238 0.06,0.052 0.107,0.113 0.165,0.176 -0.134,-1.486 -0.144,-3.028 -0.062,-4.646 m -7.114,6.207 c 0.521,2.211 2.266,2.869 3.753,2.734 1.513,-0.14 3.149,-1.173 3.16,-2.845 0,-0.345 -0.094,-0.763 -0.354,-0.951 -0.287,-0.182 -0.681,-0.083 -0.974,0.053 -1.597,0.674 -3.529,1.017 -5.585,1.009 m -2.329,-2.957 c 0.062,0.643 0.103,1.318 0.104,2.008 1.529,0.185 3.01,0.172 4.387,-0.014 -0.627,-0.747 -1.989,-1.851 -4.491,-1.994 m 45.018,1.223 c 0.151,-0.11 0.388,-0.224 0.687,-0.235 0.248,-0.406 0.529,-1.137 0.549,-2.499 0.014,-0.304 0.255,-0.577 0.527,-0.534 0.188,0.035 0.385,0.084 0.563,0.165 -0.053,-0.629 -0.259,-1.136 -0.839,-1.724 -0.589,0.235 -1.113,0.363 -1.617,0.361 0.091,1.611 0.074,3.159 -0.061,4.64 0.067,-0.07 0.107,-0.133 0.191,-0.174 m 3.234,4.464 c 0.131,0.02 0.256,0.015 0.377,0.02 1.084,0 2.228,-0.442 2.909,-1.59 -2.747,0.005 -5.063,-0.684 -6.434,-1.506 0,0.087 -0.015,0.157 -0.012,0.243 0.018,1.656 1.644,2.689 3.16,2.833 m 3.582,-2.162 c 0.043,-0.173 0.127,-0.362 0.164,-0.562 -2.043,-0.005 -3.976,-0.351 -5.57,-1.019 -0.303,-0.125 -0.694,-0.235 -0.96,-0.055 -0.064,0.058 -0.124,0.105 -0.151,0.16 1.296,0.828 3.656,1.539 6.517,1.476 m 2.398,-1.52 c 0,-0.345 0.011,-0.687 0.026,-1.04 -1.284,0.16 -1.93,0.725 -2.229,1.181 0.707,-0.021 1.452,-0.044 2.203,-0.141 m 0.106,-2.006 c -2.51,0.138 -3.871,1.252 -4.5,1.995 0.499,0.075 1.01,0.103 1.519,0.132 0.307,-0.588 1.069,-1.569 2.947,-1.741 0.01,-0.133 0.017,-0.267 0.034,-0.386 m -101.057,-58.866 h 35.618 l 0.01,-5.258 -34.583,-10e-4 c 2.111,-9.006 5.865,-17.393 10.909,-24.831 l 123.897,10e-4 c 5.057,7.431 8.816,15.82 10.917,24.829 l -34.608,0.005 v 5.246 l 35.653,0.009 c 0.625,3.863 0.943,7.822 0.946,11.862 0.01,32.085 -20.294,59.513 -48.708,70.14 -3.167,1.193 -6.426,2.166 -9.785,2.893 3.242,-1.051 6.835,-2.767 10.459,-5.152 14.475,-9.544 29.234,-29.425 22.113,-56.584 -0.038,-0.095 -0.067,-0.176 -0.093,-0.269 l -2.13,-0.002 c 0.026,0.143 0.046,0.308 0.09,0.478 0.186,0.638 0.313,1.113 0.555,2.27 -0.653,-0.988 -1.404,-1.927 -2.211,-2.744 l -3.509,-10e-4 c 0.852,1.124 1.367,2.324 1.639,3.698 -1.02,-1.536 -2.085,-2.799 -3.265,-3.696 l -2.562,0.001 c 0.028,0.032 0.078,0.081 0.121,0.105 1.174,0.773 3.962,3.918 3.918,7.602 -0.747,-3.13 -3.294,-6.105 -6.083,-7.711 l -2.847,0.005 c 0.041,0.034 0.077,0.043 0.122,0.054 1.485,0.715 4.446,2.673 5.232,4.408 -2.49,-1.815 -5.233,-3.361 -7.756,-4.458 l -4.321,-0.006 c 3.621,1.58 6.772,3.462 8.256,6.899 -3.767,-3.169 -8.165,-5.681 -14.76,-6.895 l -10.442,-0.005 c -0.049,0.444 0.562,0.904 1.921,1.034 9.217,0.771 21.397,5.125 24.158,12.87 -4.644,-4.938 -11.474,-8.809 -17.175,-8.42 -2.133,0.158 -2.68,1.807 -0.289,2.195 7.681,1.25 15.095,5.696 16.056,12.71 -1.443,-3.747 -4.209,-6.136 -7.537,-6.67 -1.209,-0.191 -2.118,0.642 -0.352,1.217 2.084,0.68 4.943,2.797 5.176,5.171 -0.978,-1.907 -2.943,-2.618 -4.261,-2.664 -1.065,-0.032 -1.009,0.537 -0.037,0.939 0.234,0.095 0.468,0.24 0.698,0.408 1.421,1.118 2.298,3.677 2.288,7.418 -0.01,0.282 -0.01,0.566 -0.021,0.882 -3.356,-2.204 -6.161,-4.689 -6.067,-7.437 0.101,-2.475 -0.276,-6.596 -2.345,-9.513 -1.24,-0.408 -2.53,-0.717 -3.843,-0.934 -2.201,-0.364 -2.923,-1.615 -2.866,-2.685 0.07,-1.411 1.387,-2.45 3.303,-2.576 0.174,-0.006 0.362,-0.02 0.536,-0.026 -1.927,-0.518 -3.925,-0.905 -5.882,-1.158 0.87,7.679 2.243,11.803 5.665,16.548 l -0.237,0.113 c -1.057,-0.941 -1.942,-1.987 -2.703,-3.186 -0.062,1.634 0.179,3.579 0.815,5.13 0.13,-0.128 0.238,-0.262 0.376,-0.374 l 0.22,-0.192 0.268,0.067 c 2.258,0.525 5.882,2.636 8.361,4.744 l -0.304,0.38 c -2.352,-1.83 -5.81,-3.468 -8.04,-3.962 -0.894,0.774 -1.908,1.778 -1.283,5.099 l -0.238,0.064 c -0.38,-1.093 -0.569,-2.014 -0.567,-2.814 -0.562,0.179 -0.941,1.058 -0.664,3.898 0.166,1.704 0.418,2.075 1.721,3.028 1.293,0.938 2.492,0.72 3.603,0.221 0.611,-0.279 0.44,-0.58 0,-0.554 -0.444,0.05 -1.258,0.007 -1.258,0.007 0.834,-0.433 1.178,-0.679 1.46,-0.917 0.284,-0.25 0.255,-0.626 -0.372,-0.486 -0.614,0.142 -1.292,0.342 -1.756,0.423 0.498,-0.368 0.826,-0.643 1.144,-1.032 0.229,-0.275 -0.11,-0.594 -0.505,-0.298 -0.431,0.299 -1.147,0.551 -1.79,0.613 0.507,-0.256 0.814,-0.499 1.083,-0.74 0.252,-0.221 0,-0.53 -0.35,-0.322 -0.528,0.288 -1.763,-0.193 -2.406,0.164 l 0.206,-0.478 c 0.297,-0.258 0.701,-0.343 1.341,-0.343 l 0.273,-0.006 c 0.087,-0.003 0.15,-0.012 0.205,-0.035 0.185,-0.102 0.4,-0.171 0.586,-0.174 0.368,0.005 0.682,0.182 0.861,0.448 0.096,-0.037 0.197,-0.049 0.307,-0.046 0.42,-0.006 0.791,0.234 0.957,0.608 0.058,0.113 0.093,0.269 0.098,0.394 0.566,0.006 0.9,0.347 1.003,0.669 0.149,0.345 0.051,0.739 -0.193,1.073 0.119,0.115 0.235,0.292 0.268,0.46 0.043,0.22 0.078,0.722 -0.553,1.131 0.267,0.362 0.498,0.814 0.621,1.312 0.394,0.049 1.258,0.191 1.588,0.052 -0.047,-0.16 -0.314,-0.276 -0.522,-0.426 v -0.197 c 0.391,0.06 0.69,0.246 0.815,0.486 0.093,0.22 0.287,0.675 -0.121,0.635 -0.43,-0.009 -1.192,0.035 -1.635,0.134 0.01,0.113 0.018,0.227 0.01,0.36 0.179,0.168 0.325,0.376 0.397,0.628 l -0.15,0.061 c -0.215,-0.226 -0.61,-0.373 -1.224,-0.428 -0.115,1.055 -0.283,1.826 -0.488,2.354 0.102,0.038 0.206,0.064 0.315,0.116 0.737,0.306 1.567,0.538 2.451,0.697 0.33,-0.436 0.94,-1.108 1.961,-1.642 0.306,-1.131 -0.176,-2.901 -0.762,-3.565 -0.2,-0.086 -0.386,-0.182 -0.563,-0.312 -0.855,-0.62 -1.27,-1.623 -1.501,-3.022 -0.521,-0.081 -1.054,-0.411 -1.412,-1.054 l 0.172,-0.142 c 0.205,0.507 1.162,0.572 1.912,0.427 0.176,1.325 0.675,2.582 1.383,3.103 0.646,0.47 1.582,0.765 2.657,0.552 l 0.071,0.363 c -0.563,0.229 -1.134,0.345 -1.667,0.311 0.467,1.188 0.468,2.124 0.159,3.118 0.747,-0.331 1.68,-0.566 2.825,-0.613 0.217,-1.412 0.668,-2.728 1.554,-4.009 l 0.684,0.466 0.015,-0.009 v 0.011 c 0.285,1.476 0.428,2.878 0.426,4.22 0,8.597 -5.451,14.307 -9.342,16.527 4.605,-3.951 8.665,-9.367 7.958,-18.879 -0.524,1.409 -0.689,2.907 -0.673,4.623 0,0.197 -0.156,0.38 -0.359,0.403 -0.612,0.082 -1.232,0.149 -1.849,0.155 -0.563,2.902 -2.864,3.732 -4.635,3.574 -1.568,-0.133 -3.226,-1.088 -3.747,-2.659 -1.219,6.125 -4.699,10.849 -10.176,13.4 -5.394,2.522 -3.769,5.686 -1.248,5.404 -0.71,0.919 -1.013,2.136 -0.47,3.122 0.415,0.805 1.388,1.442 3.151,1.586 -1.18,0.137 -2.376,0.245 -3.561,0.306 -1.647,0.132 -3.296,0.176 -4.959,0.18 -1.676,0.001 -3.336,-0.055 -4.995,-0.173 -1.191,-0.063 -2.371,-0.173 -3.53,-0.314 1.739,-0.158 2.694,-0.781 3.117,-1.587 0.542,-0.986 0.243,-2.206 -0.465,-3.121 2.527,0.285 4.142,-2.884 -1.252,-5.399 -5.471,-2.559 -8.95,-7.281 -10.171,-13.399 -0.524,1.557 -2.166,2.515 -3.755,2.661 -1.762,0.152 -4.07,-0.67 -4.637,-3.583 -0.614,-0.005 -1.226,-0.071 -1.846,-0.152 -0.203,-0.026 -0.368,-0.203 -0.342,-0.406 -10e-4,-1.724 -0.156,-3.228 -0.699,-4.657 -0.701,9.53 3.361,14.977 7.969,18.921 -4.483,-2.57 -11.072,-9.78 -8.924,-20.772 l 0.704,-0.453 c 0.885,1.292 1.335,2.599 1.562,4.011 1.145,0.051 2.058,0.291 2.815,0.615 -0.307,-0.988 -0.317,-1.939 0.137,-3.119 -0.513,0.032 -1.075,-0.083 -1.646,-0.312 l 0.066,-0.365 c 1.079,0.22 2.026,-0.074 2.661,-0.544 0.732,-0.519 1.21,-1.792 1.389,-3.102 0.754,0.139 1.704,0.08 1.929,-0.43 l 0.149,0.148 c -0.345,0.641 -0.895,0.971 -1.408,1.053 -0.237,1.394 -0.645,2.389 -1.505,3.024 -0.165,0.118 -0.363,0.218 -0.557,0.304 -0.57,0.659 -1.073,2.43 -0.765,3.566 1.026,0.527 1.647,1.199 1.965,1.648 0.879,-0.163 1.713,-0.399 2.444,-0.709 0.109,-0.047 0.216,-0.081 0.309,-0.108 -0.212,-0.533 -0.378,-1.301 -0.482,-2.361 -0.606,0.058 -1,0.206 -1.217,0.435 l -0.157,-0.063 c 0.076,-0.253 0.215,-0.464 0.402,-0.627 -0.014,-0.139 -0.012,-0.249 0.01,-0.368 -0.446,-0.086 -1.208,-0.141 -1.62,-0.121 -0.426,0.03 -0.237,-0.428 -0.122,-0.646 0.107,-0.231 0.426,-0.423 0.797,-0.479 v 0.198 c -0.209,0.145 -0.473,0.263 -0.513,0.426 0.321,0.142 1.209,-0.007 1.577,-0.05 0.124,-0.499 0.361,-0.957 0.625,-1.323 -0.627,-0.402 -0.589,-0.898 -0.546,-1.121 0.032,-0.176 0.124,-0.35 0.267,-0.475 -0.264,-0.324 -0.34,-0.713 -0.203,-1.061 0.106,-0.33 0.433,-0.655 1.005,-0.673 -0.01,-0.125 0.046,-0.284 0.098,-0.394 0.167,-0.377 0.547,-0.615 0.965,-0.61 0.109,0.003 0.205,0.015 0.295,0.05 0.191,-0.273 0.516,-0.438 0.85,-0.442 0.222,-0.005 0.428,0.058 0.611,0.165 0.043,0.023 0.113,0.041 0.188,0.035 l 0.285,-0.003 c 0.64,0 1.046,0.101 1.341,0.347 l 0.209,0.495 c -0.661,-0.361 -1.878,0.123 -2.418,-0.184 -0.318,-0.202 -0.593,0.111 -0.33,0.337 0.239,0.232 0.569,0.487 1.074,0.735 -0.65,-0.063 -1.389,-0.309 -1.769,-0.613 -0.417,-0.301 -0.756,0.021 -0.541,0.296 0.333,0.391 0.66,0.657 1.145,1.037 -0.45,-0.075 -1.124,-0.28 -1.754,-0.425 -0.606,-0.139 -0.637,0.235 -0.356,0.49 0.276,0.229 0.617,0.487 1.449,0.904 0,0 -0.814,0.055 -1.246,0.009 -0.446,-0.038 -0.62,0.264 0,0.542 1.108,0.498 2.297,0.72 3.604,-0.223 1.297,-0.957 1.547,-1.314 1.702,-3.024 0.276,-2.838 -0.084,-3.716 -0.655,-3.895 0,0.8 -0.182,1.716 -0.567,2.815 l -0.231,-0.058 c 0.606,-3.322 -0.386,-4.333 -1.287,-5.112 -2.22,0.506 -5.668,2.134 -8.034,3.971 l -0.299,-0.383 c 2.473,-2.117 6.089,-4.221 8.352,-4.753 l 0.261,-0.058 0.223,0.191 c 0.145,0.11 0.264,0.226 0.392,0.357 0.627,-1.531 0.867,-3.479 0.793,-5.111 -0.753,1.192 -1.641,2.238 -2.69,3.184 l -0.232,-0.107 c 3.426,-4.75 4.799,-8.878 5.656,-16.559 -1.959,0.251 -3.954,0.64 -5.88,1.157 0.193,0.012 0.365,0.018 0.545,0.038 1.901,0.129 3.232,1.163 3.299,2.571 0.041,1.07 -0.676,2.32 -2.858,2.675 -1.325,0.223 -2.611,0.543 -3.857,0.947 -2.045,2.914 -2.446,7.038 -2.348,9.514 0.092,2.744 -2.709,5.236 -6.064,7.429 -0.021,-0.313 -0.012,-0.594 -0.012,-0.889 -0.018,-3.737 0.877,-6.285 2.287,-7.399 0.218,-0.179 0.449,-0.319 0.682,-0.408 0.976,-0.41 1.043,-0.972 -0.024,-0.943 -1.316,0.042 -3.293,0.756 -4.263,2.67 0.228,-2.394 3.081,-4.503 5.171,-5.177 1.77,-0.581 0.857,-1.412 -0.349,-1.22 -3.335,0.535 -6.099,2.925 -7.537,6.668 0.961,-7.015 8.372,-11.448 16.063,-12.708 2.388,-0.39 1.839,-2.042 -0.291,-2.191 -5.689,-0.396 -12.542,3.474 -17.185,8.413 2.754,-7.737 14.939,-12.101 24.159,-12.869 1.361,-0.129 1.97,-0.593 1.921,-1.037 l -10.435,0.01 c -6.584,1.216 -11.002,3.723 -14.76,6.887 1.483,-3.423 4.637,-5.309 8.259,-6.894 l -4.312,0.008 c -2.539,1.092 -5.29,2.647 -7.777,4.466 0.781,-1.751 3.745,-3.709 5.237,-4.409 0.042,-0.014 0.082,-0.029 0.128,-0.067 l -2.846,0.005 c -2.796,1.581 -5.341,4.58 -6.096,7.705 -0.043,-3.681 2.749,-6.827 3.925,-7.593 0.047,-0.038 0.094,-0.076 0.139,-0.114 l -2.584,-0.004 c -1.174,0.902 -2.24,2.164 -3.265,3.706 0.283,-1.382 0.802,-2.571 1.649,-3.702 l -3.498,0.003 c -0.831,0.815 -1.581,1.748 -2.224,2.746 0.228,-1.163 0.359,-1.635 0.544,-2.279 0.054,-0.171 0.081,-0.325 0.104,-0.466 l -2.142,-0.005 c -0.024,0.093 -0.055,0.171 -0.079,0.264 -7.109,27.133 7.596,46.995 22.065,56.538 3.581,2.383 7.173,4.129 10.396,5.178 -3.334,-0.756 -6.589,-1.728 -9.755,-2.912 -28.352,-10.665 -48.591,-38.064 -48.598,-70.099 -0.01,-4.029 0.316,-7.989 0.937,-11.861"
       style="fill:#000000;fill-opacity:1;fill-rule:nonzero;stroke:none"
       id="path464" /><path
       d="m 1282.6572,440.3833 c -52.233,0.007 -94.728,42.507 -94.731,94.738 0.01,52.234 42.507,94.728 94.738,94.732 52.234,-0.007 94.724,-42.495 94.732,-94.738 -0.01,-52.234 -42.496,-94.725 -94.739,-94.732 m 0,191.65 c -53.437,-0.009 -96.914,-43.473 -96.904,-96.91 0,-53.44 43.472,-96.914 96.898,-96.908 53.439,-0.003 96.916,43.461 96.92,96.901 -0.01,53.437 -43.474,96.914 -96.914,96.917"
       style="fill:#000000;fill-opacity:1;fill-rule:nonzero;stroke:none"
       id="path468" /><path
       d="m 1233.6494,611.3735 1.405,-2.302 c 3.815,2.304 8.264,4.736 11.826,6.66 1.148,0.643 1.148,-10e-4 1.529,-0.902 0,0 -3.306,-2.811 -5.219,-4.485 -1.27,-1.022 -2.165,-2.684 -1.017,-4.48 l 1.016,-1.669 2.675,1.667 -1.022,1.794 -1.526,-1.025 c -0.383,0.644 -0.507,1.283 1.782,2.945 l 6.239,4.614 -1.529,3.08 c -1.015,2.052 -1.527,1.924 -3.179,1.156 -3.564,-1.794 -8.27,-4.36 -11.327,-6.153 l -0.631,1.03 c -0.512,0.768 -0.76,0.892 -1.148,0.635 -0.891,-0.509 -1.523,-1.023 -2.16,-1.535 l 1.142,-1.793 z"
       style="fill:#000000;fill-opacity:1;fill-rule:nonzero;stroke:none"
       id="path472" /><path
       d="m 1255.4063,617.3975 c -1.527,-2.051 -0.381,-5.131 0.506,-7.819 1.4,0.641 2.162,1.022 3.944,1.667 l -1.147,2.175 -2.162,-0.896 c -0.38,1.279 -0.885,3.463 0.257,4.613 8.14,-1.283 11.324,-0.767 13.99,-3.338 l 0.639,0.26 c -0.506,1.927 -1.522,2.69 -3.3,3.46 1.771,1.538 3.048,3.844 1.904,7.176 -1.781,-0.122 -3.178,-0.379 -4.583,-0.638 l 0.386,-2.435 c 1.144,0.255 2.034,0.386 3.179,0.515 -0.129,-1.28 -0.259,-2.691 -2.548,-3.85 -5.468,1.415 -9.667,1.29 -14.118,2.828 l -0.382,-0.387 c 0.636,-1.92 1.654,-2.692 3.435,-3.331"
       style="fill:#000000;fill-opacity:1;fill-rule:nonzero;stroke:none"
       id="path476" /><path
       d="m 1273.9795,625.3408 0.124,-2.696 c 4.58,0.129 9.543,0.133 13.613,0 1.275,0 0.892,-0.643 0.893,-1.538 0,0 -4.201,-0.897 -6.743,-1.404 -1.525,-0.264 -3.053,-1.284 -3.054,-3.337 l -10e-4,-2.053 c 0.89,0.126 2.033,0.124 3.177,10e-4 0.127,0.641 0.261,1.152 0,2.18 l -1.786,-0.002 c 0.01,0.641 0.131,1.286 3.057,1.667 l 7.505,0.894 0.259,3.461 c 0.125,2.306 -0.385,2.431 -2.286,2.565 -3.946,0.255 -9.292,0.256 -12.853,0.134 l -10e-4,1.278 c 0,0.77 -0.257,1.027 -0.634,1.029 l -2.674,-0.259 0.129,-2.05 z"
       style="fill:#000000;fill-opacity:1;fill-rule:nonzero;stroke:none"
       id="path480" /><path
       d="m 1309.8477,612.7715 c -0.632,0.895 -1.141,1.402 -1.775,2.048 l 2.029,1.794 c 0.763,0.638 1.15,1.54 1.531,2.561 0.383,1.026 -0.127,1.538 -0.891,1.795 -1.271,0.514 -1.397,0.513 -3.052,1.031 l -0.888,-2.696 2.67,-0.895 c -0.257,-1.026 -1.022,-2.052 -2.04,-2.818 l -7.249,5.766 -0.511,2.309 c -1.39,0.383 -2.414,0.51 -4.064,0.769 l -0.637,-2.69 4.322,-0.901 c 2.797,-2.69 5.469,-5.385 8.268,-8.331 -4.451,1.412 -9.033,2.565 -13.486,3.463 -0.38,-0.899 -0.634,-1.798 -0.76,-2.564 4.959,-1.028 10.681,-2.436 15.262,-4.107 0.634,1.154 0.888,2.052 1.271,3.466"
       style="fill:#000000;fill-opacity:1;fill-rule:nonzero;stroke:none"
       id="path484" /><path
       d="m 1322.4473,610.0742 c -0.01,1.151 -2.293,1.28 -1.917,-0.77 1.018,-0.768 2.163,-0.256 1.917,0.77"
       style="fill:#000000;fill-opacity:1;fill-rule:nonzero;stroke:none"
       id="path488" /><path
       d="m 1311.5039,608.4141 c 3.939,-1.927 10.047,-5.134 13.99,-8.086 l 1.906,2.31 c -0.63,0.508 -1.394,1.023 -2.288,1.539 2.927,0.639 3.051,0.891 4.068,2.306 l 1.023,1.403 c 1.145,1.669 0.765,2.565 -0.512,3.465 -4.195,2.95 -7.759,5.005 -12.843,7.18 l -1.271,-2.434 c 5.085,-2.18 8.137,-3.976 12.588,-7.184 l -1.147,-1.917 c -0.76,-1.155 -1.395,-1.414 -3.431,-2.052 -3.433,2.053 -6.994,4.1 -10.814,5.769 z"
       style="fill:#000000;fill-opacity:1;fill-rule:nonzero;stroke:none"
       id="path492" /><path
       d="m 1367.8984,522.1904 1.798,-0.858 c -0.122,-1.034 -0.242,-1.931 -0.481,-2.711 l -1.909,-0.025 z m -7.566,3.866 c 1.929,-1.12 3.587,-1.868 5.648,-3.114 l -0.698,-4.5 -6.361,-0.352 -0.349,-2.318 12.464,0.834 c 0.362,1.666 0.702,3.599 0.804,5.777 l -11.28,5.983 z"
       style="fill:#000000;fill-opacity:1;fill-rule:nonzero;stroke:none"
       id="path496" /><path
       d="m 1354.3984,503.2002 c 2.796,-1.538 4.835,-2.308 7.123,-3.463 l 0.892,2.053 c -1.781,1.021 -3.31,1.54 -5.09,2.561 0.894,2.185 1.439,3.675 2.207,5.985 l 9.282,-2.312 0.637,2.307 -11.447,2.824 c -1.145,-3.465 -2.333,-6.62 -3.604,-9.955"
       style="fill:#000000;fill-opacity:1;fill-rule:nonzero;stroke:none"
       id="path500" /><path
       d="m 1347.7246,491.4927 1.777,-1.409 c 1.912,2.685 3.314,4.997 4.71,7.432 l 2.673,-1.411 c -1.272,-2.688 -2.674,-4.999 -4.325,-7.946 l 1.776,-1.022 4.584,8.075 1.651,-0.902 c -1.397,-3.462 -2.545,-5.131 -4.325,-8.332 l 1.651,-1.149 c 2.291,3.328 3.82,6.401 5.605,10.383 l -10.433,5.25 c -1.656,-3.331 -3.309,-5.765 -5.344,-8.969"
       style="fill:#000000;fill-opacity:1;fill-rule:nonzero;stroke:none"
       id="path504" /><path
       d="m 1344.418,487.0103 6.614,-5.26 -5.981,-0.383 0.763,-6.281 -6.87,5.897 -1.527,-1.664 9.286,-7.699 c 0.637,0.515 1.273,1.157 1.777,1.922 l -0.887,5.771 6.105,0.128 1.277,2.048 -9.287,7.312 z"
       style="fill:#000000;fill-opacity:1;fill-rule:nonzero;stroke:none"
       id="path508" /><path
       d="m 1339.4453,591.9761 3.835,3.438 c -0.376,0.512 -0.88,1.032 -1.514,1.677 -1.153,-1.275 -3.583,-3.442 -5.372,-5.222 2.653,-2.452 4.21,-4.183 5.977,-6.111 l 8.95,7.247 -1.514,1.678 c -2.436,-2.034 -4.862,-3.944 -7.288,-5.854 z"
       style="fill:#000000;fill-opacity:1;fill-rule:nonzero;stroke:none"
       id="path512" /><path
       d="m 1350.7891,573.1406 1.782,1.289 c -1.786,3.203 -3.18,5.381 -4.831,7.818 l 2.797,1.924 c 1.654,-2.953 3.055,-4.874 4.703,-7.95 l 1.783,1.023 -4.707,7.95 1.657,1.152 c 1.017,-1.538 3.814,-5.767 4.831,-8.08 l 1.911,1.156 c -2.415,4.49 -4.073,6.799 -6.492,10.257 l -9.536,-6.919 c 2.161,-2.949 4.192,-6.283 6.102,-9.62"
       style="fill:#000000;fill-opacity:1;fill-rule:nonzero;stroke:none"
       id="path516" /><path
       d="m 1362.2031,572.5049 c 1.647,-2.557 2.286,-4.874 2.917,-6.662 0.509,-1.548 -1.526,-1.932 -1.911,-0.784 -0.766,2.185 -1.654,4.365 -2.801,6.543 z m -8.782,-4.493 5.21,2.568 c 0.763,-1.533 1.401,-2.557 1.91,-4.105 l -4.834,-4.223 0.891,-2.438 4.962,4.747 c 1.777,-3.72 6.741,-1.546 5.47,2.165 -1.148,3.469 -1.9,5.006 -3.944,8.463 -3.436,-1.535 -6.99,-3.579 -10.566,-5.246 z"
       style="fill:#000000;fill-opacity:1;fill-rule:nonzero;stroke:none"
       id="path520" /><path
       d="m 1360.0479,546.1528 c 4.565,0.542 7.726,1.162 11.646,1.81 l -0.447,2.04 c -3.29,-0.63 -5.699,-0.964 -9.242,-1.474 -0.45,1.909 -0.771,3.954 -1.347,5.856 2.64,0.988 5.536,1.983 8.684,2.858 l -0.578,2.161 c -4.281,-1.427 -6.42,-2.013 -10.945,-3.707 0.875,-3.305 1.619,-6.611 2.229,-9.544"
       style="fill:#000000;fill-opacity:1;fill-rule:nonzero;stroke:none"
       id="path524" /><path
       d="m 1325.4756,468.6484 -2.874,-1.816 1.437,-2.364 1.954,1.21 c 0.393,0.242 0.782,0.483 1.146,-0.045 l 1.198,-1.84 0.816,1.377 -2.163,3.161 c -0.366,0.531 -0.736,0.798 -1.514,0.317"
       style="fill:#000000;fill-opacity:1;fill-rule:nonzero;stroke:none"
       id="path528" /><path
       d="m 1316.6543,463.9258 c -2.729,-1.287 -7.271,-3.271 -12.57,-4.961 l 0.897,-2.737 c 6.196,1.911 8.798,3.208 12.436,4.71 0.905,0.348 1.551,0.579 2.135,-0.603 l 3.143,-6.81 1.606,1.852 -3.872,7.483 c -0.937,1.842 -2.084,1.888 -3.775,1.066"
       style="fill:#000000;fill-opacity:1;fill-rule:nonzero;stroke:none"
       id="path532" /><path
       d="m 1299.3818,457.7759 -3.593,-0.768 0.405,-2.834 2.696,0.544 c 0.763,0.097 1.145,0.086 1.365,-0.954 0.532,-2.708 0.618,-3.867 1.255,-7.355 l 1.822,1.088 -1.966,8.801 c -0.329,1.418 -0.962,1.698 -1.984,1.478"
       style="fill:#000000;fill-opacity:1;fill-rule:nonzero;stroke:none"
       id="path536" /><path
       d="m 1292.042,456.4536 -3.307,-0.071 0.072,-2.819 2.928,-0.055 c -0.038,-1.662 -0.073,-3.588 -0.216,-4.357 -2.581,-1.874 -4.742,-1.964 -6.776,-1.924 l -2.674,0.054 c 0.542,1.656 1.341,3.437 2.136,5.213 0.269,0.642 0.528,1.017 1.545,1 l 0.764,-0.011 -0.07,2.815 c -1.783,-0.094 -3.056,-0.07 -5.217,-0.024 l -0.058,-2.823 2.16,-0.041 -1.97,-3.297 c -1.574,-2.53 -2.088,-2.648 -4.755,-2.342 l 0.226,4.995 c 0.01,0.387 0.145,0.77 0.779,0.755 l 1.401,-0.029 -0.072,2.823 c -0.897,0.02 -3.182,0.192 -5.089,0.356 l -0.179,-2.821 1.524,-0.156 -0.54,-8.324 c 3.68,-0.458 9.144,-0.814 12.84,-0.368 2.828,1.48 3.737,2.234 5.681,4.247 0.278,1.146 0.187,3.069 0.24,5.766 0.015,1.025 -0.354,1.412 -1.373,1.438"
       style="fill:#000000;fill-opacity:1;fill-rule:nonzero;stroke:none"
       id="path540" /><path
       d="m 1268.8457,457.2891 c -5.342,1.15 -6.99,1.539 -10.56,2.567 l 0.385,1.283 c 0.252,0.767 -0.13,1.024 -0.509,1.151 l -2.291,0.768 -0.76,-2.177 1.27,-0.388 -0.765,-2.56 c 4.58,-1.411 9.035,-2.439 11.702,-2.952 1.912,-0.384 1.529,-0.258 1.272,-1.792 0,0 -4.068,-0.258 -6.105,-0.388 -1.656,-0.126 -3.304,-0.381 -3.948,-2.302 l -0.632,-1.923 c 1.017,-0.382 1.777,-0.644 3.05,-0.901 l 0.641,1.926 -1.652,0.509 c 0.123,0.639 0.759,0.772 1.268,0.769 l 9.034,-0.13 0.635,3.59 c 0.38,2.309 -0.252,2.559 -2.035,2.95"
       style="fill:#000000;fill-opacity:1;fill-rule:nonzero;stroke:none"
       id="path544" /><path
       d="m 1249.2305,458.3687 -1.808,-3.32 c -5.459,2.334 -8.62,4.144 -13.312,7.507 l 1.16,1.915 c 0.761,1.149 1.409,1.41 3.433,2.038 l 9.527,-5.31 c 1.387,-0.775 1.764,-1.297 1,-2.83 m 0.024,5.388 c -3.932,1.939 -8.501,4.408 -12.418,7.373 l -1.925,-2.303 c 0.631,-0.508 1.39,-1.033 2.283,-1.549 -2.925,-0.618 -3.07,-0.877 -4.085,-2.287 l -2.568,-3.436 c 6.084,-4.395 10.273,-6.725 17.882,-9.976 l 2.58,4.867 c 2.176,4.46 2.183,5.372 -1.749,7.311"
       style="fill:#000000;fill-opacity:1;fill-rule:nonzero;stroke:none"
       id="path548" /><path
       d="m 1216.1367,483.9131 c -1.254,1.818 -3.003,4.141 -4.005,5.689 -2.383,3.482 1.076,5.121 2.7,2.656 l 4.254,-6.194 z m -2.81,-2.019 c -2.273,2.845 -3.142,4.008 -5.145,7.105 -0.878,1.296 0.404,2.182 1.408,0.77 1.992,-2.854 3.386,-4.538 5.135,-6.861 z m -3.958,10.689 c -2.927,0.034 -4.871,-2.249 -2.23,-6.123 1.744,-2.595 4.376,-6.089 5.758,-7.629 l 8.992,6.811 -5.262,8.012 c -2.253,3.355 -6.85,1.74 -7.258,-1.071"
       style="fill:#000000;fill-opacity:1;fill-rule:nonzero;stroke:none"
       id="path552" /><path
       d="m 1208.291,510.2812 -2.047,-0.873 c 1.363,-3.344 2.478,-5.664 3.721,-8.375 l -2.811,-1.379 c -1.368,2.966 -2.736,5.547 -3.722,8.634 l -1.92,-0.873 3.595,-8.63 -1.794,-1.008 c -0.749,1.418 -2.974,6.695 -3.712,8.888 l -1.795,-0.748 c 1.601,-4.893 2.972,-7.468 4.712,-11.084 3.839,1.885 6.398,3.141 10.238,5.403 -1.489,3.089 -2.977,6.7 -4.465,10.045"
       style="fill:#000000;fill-opacity:1;fill-rule:nonzero;stroke:none"
       id="path556" /><path
       d="m 1196.0566,519.9097 c 1.771,-1.049 7.953,-5.607 9.592,-6.904 l 1.659,0.625 c -0.978,3.471 -1.829,6.942 -2.425,10.795 l -2.163,-0.363 c 0.229,-2.435 0.831,-5.137 1.316,-7.195 l -8.712,5.869 -2.038,-0.364 c 0.586,-4.236 1.818,-8.224 2.916,-12.079 l 2.172,0.742 c -0.864,2.706 -1.591,5.403 -2.317,8.874"
       style="fill:#000000;fill-opacity:1;fill-rule:nonzero;stroke:none"
       id="path560" /><path
       d="m 1196.7188,534.3828 -1.886,1.438 0.031,2.299 1.916,1.008 z m 7.846,-5.089 c -2.157,1.433 -3.665,2.35 -5.813,4.044 0.029,2.557 0.181,4.614 0.332,6.672 l 5.506,3.011 0.152,2.55 c -4.351,-2.255 -8.317,-4.13 -12.037,-6.4 -0.143,-1.797 -0.153,-2.945 -0.041,-4.087 5.165,-4.168 10.224,-7.562 12.116,-8.483 z"
       style="fill:#000000;fill-opacity:1;fill-rule:nonzero;stroke:none"
       id="path564" /><path
       d="m 1207.8213,559.5195 -6.844,2.383 -0.783,-2.173 4.81,-1.722 c -0.66,-2.17 -1.449,-4.721 -1.858,-7.156 l -9.146,1.51 -0.403,-2.299 11.425,-1.796 c 0.809,3.965 1.609,7.161 2.799,11.253"
       style="fill:#000000;fill-opacity:1;fill-rule:nonzero;stroke:none"
       id="path568" /><path
       d="m 1214.0947,574.3188 -1.899,0.914 c -1.689,-3.052 -2.995,-5.856 -4.301,-9.182 l -2.911,1.32 c 1.179,3.187 2.87,6.504 4.3,9.438 l -1.894,0.915 c -1.684,-2.673 -3.254,-6.625 -4.558,-9.434 l -1.392,0.658 c 1.443,3.956 2.478,6.124 4.306,9.69 l -1.897,0.924 c -2.077,-3.695 -3.906,-7.783 -5.48,-11.995 3.676,-1.581 7.217,-3.023 11.019,-4.353 1.186,3.579 3.139,7.656 4.707,11.105"
       style="fill:#000000;fill-opacity:1;fill-rule:nonzero;stroke:none"
       id="path572" /><path
       d="m 1222.5088,586.9102 -6.561,5.075 -1.288,-1.911 4.793,-3.514 -4.001,-5.592 -7.708,5.084 -1.171,-2.04 c 3.667,-2.346 6.065,-4.044 9.731,-6.134 1.943,3.056 4.266,5.977 6.205,9.032"
       style="fill:#000000;fill-opacity:1;fill-rule:nonzero;stroke:none"
       id="path576" /><path
       d="m 1334.9961,600.0566 c 0.744,0.154 1.224,0.883 1.069,1.628 -0.154,0.745 -0.882,1.223 -1.628,1.069 -0.744,-0.155 -1.223,-0.883 -1.069,-1.628 0.154,-0.744 0.883,-1.223 1.628,-1.069"
       style="fill:#000000;fill-opacity:1;fill-rule:nonzero;stroke:none"
       id="path580" /><path
       d="m 1335.5303,470.833 c -0.761,0.018 -1.392,-0.584 -1.409,-1.345 -0.018,-0.76 0.584,-1.391 1.345,-1.408 0.76,-0.018 1.391,0.584 1.409,1.344 0.017,0.761 -0.584,1.391 -1.345,1.409"
       style="fill:#000000;fill-opacity:1;fill-rule:nonzero;stroke:none"
       id="path584" /><path
       d="m 1225.3672,474.5156 c -0.755,-0.095 -1.29,-0.784 -1.195,-1.538 0.095,-0.754 0.784,-1.289 1.539,-1.194 0.754,0.095 1.289,0.783 1.193,1.538 -0.094,0.755 -0.783,1.289 -1.537,1.194"
       style="fill:#000000;fill-opacity:1;fill-rule:nonzero;stroke:none"
       id="path588" /><path
       d="m 1283.098,589.898 h -0.871 v -3.045 h 0.871 z"
       style="fill:#000000;fill-opacity:1;fill-rule:nonzero;stroke:none"
       id="path590" /><path
       d="m 1280.6426,590.1069 -0.842,0.225 -0.786,-2.942 0.842,-0.225 z"
       style="fill:#000000;fill-opacity:1;fill-rule:nonzero;stroke:none"
       id="path594" /><path
       d="m 1276.8047,588.3032 1.519,2.639 -0.755,0.434 -1.518,-2.639 z"
       style="fill:#000000;fill-opacity:1;fill-rule:nonzero;stroke:none"
       id="path598" /><path
       d="m 1274.1504,590.1899 2.148,2.158 -0.617,0.614 -2.148,-2.158 z"
       style="fill:#000000;fill-opacity:1;fill-rule:nonzero;stroke:none"
       id="path602" /><path
       d="m 1274.2686,594.981 -2.633,-1.53 0.439,-0.753 2.631,1.53 z"
       style="fill:#000000;fill-opacity:1;fill-rule:nonzero;stroke:none"
       id="path606" /><path
       d="m 1286.3145,587.3896 -0.785,2.942 -0.842,-0.225 0.785,-2.942 z"
       style="fill:#000000;fill-opacity:1;fill-rule:nonzero;stroke:none"
       id="path610" /><path
       d="m 1289.2793,588.7373 -1.519,2.639 -0.754,-0.434 1.518,-2.64 z"
       style="fill:#000000;fill-opacity:1;fill-rule:nonzero;stroke:none"
       id="path614" /><path
       d="m 1291.7959,590.8037 -2.148,2.158 -0.618,-0.614 2.149,-2.158 z"
       style="fill:#000000;fill-opacity:1;fill-rule:nonzero;stroke:none"
       id="path618" /><path
       d="m 1293.6934,593.4502 -2.632,1.531 -0.438,-0.753 2.633,-1.531 z"
       style="fill:#000000;fill-opacity:1;fill-rule:nonzero;stroke:none"
       id="path622" /></g></svg>
